<mxfile host="www.draw.io" modified="2019-12-27T20:51:47.429Z" agent="Mozilla/5.0 (X11; Ubuntu; Linux x86_64; rv:71.0) Gecko/20100101 Firefox/71.0" etag="nshRUEbbCNCQMU4c8gnM" version="12.4.7" type="github">
  <diagram id="xO83vz71swdTEDcRIiK-" name="Page-1">
    <mxGraphModel dx="9091" dy="441" grid="1" gridSize="10" guides="1" tooltips="1" connect="1" arrows="1" fold="1" page="1" pageScale="1" pageWidth="827" pageHeight="1169" math="0" shadow="0">
      <root>
        <mxCell id="0"/>
        <mxCell id="1" parent="0"/>
        <mxCell id="Bwh5HaH0jvtO-nfgoD8l-25" style="edgeStyle=orthogonalEdgeStyle;rounded=0;jumpStyle=arc;jumpSize=14;orthogonalLoop=1;jettySize=auto;html=1;exitX=0;exitY=0.5;exitDx=0;exitDy=0;startArrow=diamond;startFill=1;endArrow=classic;endFill=1;" parent="1" source="SLmvfLO-0fDUO9Z2AGR4-63" target="SLmvfLO-0fDUO9Z2AGR4-136" edge="1">
          <mxGeometry relative="1" as="geometry">
            <Array as="points">
              <mxPoint x="-2500" y="790"/>
              <mxPoint x="-2500" y="1070"/>
              <mxPoint x="-2510" y="1070"/>
              <mxPoint x="-2510" y="1320"/>
              <mxPoint x="-2710" y="1320"/>
            </Array>
          </mxGeometry>
        </mxCell>
        <mxCell id="vMH8rf_PuUaEWhDIgEK9-23" style="edgeStyle=orthogonalEdgeStyle;rounded=0;jumpStyle=none;jumpSize=14;orthogonalLoop=1;jettySize=auto;html=1;exitX=0;exitY=0.5;exitDx=0;exitDy=0;entryX=0.5;entryY=0;entryDx=0;entryDy=0;startArrow=none;startFill=0;endArrow=classic;endFill=1;" parent="1" source="vMH8rf_PuUaEWhDIgEK9-13" target="vMH8rf_PuUaEWhDIgEK9-21" edge="1">
          <mxGeometry relative="1" as="geometry">
            <Array as="points">
              <mxPoint x="-2170" y="1068"/>
              <mxPoint x="-2170" y="1320"/>
              <mxPoint x="-2220" y="1320"/>
            </Array>
          </mxGeometry>
        </mxCell>
        <mxCell id="vMH8rf_PuUaEWhDIgEK9-24" style="edgeStyle=orthogonalEdgeStyle;rounded=0;jumpStyle=none;jumpSize=14;orthogonalLoop=1;jettySize=auto;html=1;exitX=0;exitY=0.5;exitDx=0;exitDy=0;startArrow=none;startFill=0;endArrow=classic;endFill=1;" parent="1" source="vMH8rf_PuUaEWhDIgEK9-13" target="vMH8rf_PuUaEWhDIgEK9-22" edge="1">
          <mxGeometry relative="1" as="geometry">
            <Array as="points">
              <mxPoint x="-2170" y="1068"/>
              <mxPoint x="-2170" y="1320"/>
              <mxPoint x="-2040" y="1320"/>
            </Array>
          </mxGeometry>
        </mxCell>
        <mxCell id="SLmvfLO-0fDUO9Z2AGR4-6" style="edgeStyle=orthogonalEdgeStyle;rounded=0;orthogonalLoop=1;jettySize=auto;html=1;entryX=0.5;entryY=0;entryDx=0;entryDy=0;exitX=0.5;exitY=1;exitDx=0;exitDy=0;" parent="1" source="SLmvfLO-0fDUO9Z2AGR4-1" target="SLmvfLO-0fDUO9Z2AGR4-5" edge="1">
          <mxGeometry relative="1" as="geometry">
            <mxPoint x="650" y="510" as="sourcePoint"/>
            <Array as="points">
              <mxPoint x="380" y="340"/>
              <mxPoint x="3609" y="340"/>
            </Array>
          </mxGeometry>
        </mxCell>
        <mxCell id="SLmvfLO-0fDUO9Z2AGR4-7" style="edgeStyle=orthogonalEdgeStyle;rounded=0;orthogonalLoop=1;jettySize=auto;html=1;exitX=0.5;exitY=1;exitDx=0;exitDy=0;entryX=0.5;entryY=0;entryDx=0;entryDy=0;" parent="1" source="SLmvfLO-0fDUO9Z2AGR4-1" target="SLmvfLO-0fDUO9Z2AGR4-4" edge="1">
          <mxGeometry relative="1" as="geometry">
            <Array as="points">
              <mxPoint x="380" y="340"/>
              <mxPoint x="1700" y="340"/>
            </Array>
          </mxGeometry>
        </mxCell>
        <mxCell id="SLmvfLO-0fDUO9Z2AGR4-8" style="edgeStyle=orthogonalEdgeStyle;rounded=0;orthogonalLoop=1;jettySize=auto;html=1;exitX=0.5;exitY=1;exitDx=0;exitDy=0;entryX=0.5;entryY=0;entryDx=0;entryDy=0;" parent="1" source="SLmvfLO-0fDUO9Z2AGR4-1" target="SLmvfLO-0fDUO9Z2AGR4-3" edge="1">
          <mxGeometry relative="1" as="geometry">
            <Array as="points">
              <mxPoint x="380" y="340"/>
              <mxPoint x="-340" y="340"/>
            </Array>
          </mxGeometry>
        </mxCell>
        <mxCell id="SLmvfLO-0fDUO9Z2AGR4-9" style="edgeStyle=orthogonalEdgeStyle;rounded=0;orthogonalLoop=1;jettySize=auto;html=1;exitX=0.5;exitY=1;exitDx=0;exitDy=0;entryX=0.5;entryY=0;entryDx=0;entryDy=0;" parent="1" source="SLmvfLO-0fDUO9Z2AGR4-1" target="SLmvfLO-0fDUO9Z2AGR4-2" edge="1">
          <mxGeometry relative="1" as="geometry">
            <Array as="points">
              <mxPoint x="381" y="260"/>
              <mxPoint x="381" y="340"/>
              <mxPoint x="250" y="340"/>
            </Array>
          </mxGeometry>
        </mxCell>
        <mxCell id="SLmvfLO-0fDUO9Z2AGR4-1" value="CHAOS" style="rounded=0;whiteSpace=wrap;html=1;" parent="1" vertex="1">
          <mxGeometry x="320" y="200" width="120" height="60" as="geometry"/>
        </mxCell>
        <mxCell id="Bwh5HaH0jvtO-nfgoD8l-135" style="edgeStyle=orthogonalEdgeStyle;rounded=0;jumpStyle=none;jumpSize=14;orthogonalLoop=1;jettySize=auto;html=1;exitX=0;exitY=0.5;exitDx=0;exitDy=0;entryX=0.5;entryY=0;entryDx=0;entryDy=0;startArrow=none;startFill=0;endArrow=classic;endFill=1;" parent="1" source="SLmvfLO-0fDUO9Z2AGR4-2" target="Bwh5HaH0jvtO-nfgoD8l-134" edge="1">
          <mxGeometry relative="1" as="geometry">
            <Array as="points">
              <mxPoint x="99" y="430"/>
              <mxPoint x="99" y="500"/>
              <mxPoint x="679" y="500"/>
            </Array>
          </mxGeometry>
        </mxCell>
        <mxCell id="Bwh5HaH0jvtO-nfgoD8l-141" style="edgeStyle=elbowEdgeStyle;rounded=0;jumpStyle=none;jumpSize=14;orthogonalLoop=1;jettySize=auto;html=1;entryX=0.5;entryY=0;entryDx=0;entryDy=0;startArrow=none;startFill=0;endArrow=classic;endFill=1;" parent="1" target="Bwh5HaH0jvtO-nfgoD8l-140" edge="1">
          <mxGeometry relative="1" as="geometry">
            <mxPoint x="150" y="500" as="sourcePoint"/>
            <Array as="points">
              <mxPoint x="300" y="540"/>
            </Array>
          </mxGeometry>
        </mxCell>
        <mxCell id="SLmvfLO-0fDUO9Z2AGR4-2" value="TARTARUS&lt;br&gt;(depths &amp;amp; caves beneath earth)" style="rounded=0;whiteSpace=wrap;html=1;fillColor=#d5e8d4;strokeColor=#82b366;" parent="1" vertex="1">
          <mxGeometry x="190" y="400" width="120" height="60" as="geometry"/>
        </mxCell>
        <mxCell id="SLmvfLO-0fDUO9Z2AGR4-12" style="edgeStyle=orthogonalEdgeStyle;rounded=0;orthogonalLoop=1;jettySize=auto;html=1;exitX=0.5;exitY=1;exitDx=0;exitDy=0;" parent="1" source="SLmvfLO-0fDUO9Z2AGR4-3" target="SLmvfLO-0fDUO9Z2AGR4-11" edge="1">
          <mxGeometry relative="1" as="geometry">
            <Array as="points">
              <mxPoint x="-340" y="500"/>
              <mxPoint x="-178" y="500"/>
            </Array>
          </mxGeometry>
        </mxCell>
        <mxCell id="SLmvfLO-0fDUO9Z2AGR4-13" style="edgeStyle=orthogonalEdgeStyle;rounded=0;orthogonalLoop=1;jettySize=auto;html=1;exitX=0.5;exitY=1;exitDx=0;exitDy=0;entryX=0.5;entryY=0;entryDx=0;entryDy=0;" parent="1" source="SLmvfLO-0fDUO9Z2AGR4-3" target="SLmvfLO-0fDUO9Z2AGR4-10" edge="1">
          <mxGeometry relative="1" as="geometry">
            <Array as="points">
              <mxPoint x="-340" y="500"/>
              <mxPoint x="-460" y="500"/>
            </Array>
          </mxGeometry>
        </mxCell>
        <mxCell id="SLmvfLO-0fDUO9Z2AGR4-145" style="edgeStyle=orthogonalEdgeStyle;rounded=0;orthogonalLoop=1;jettySize=auto;html=1;exitX=1;exitY=0.5;exitDx=0;exitDy=0;entryX=0.5;entryY=0;entryDx=0;entryDy=0;startArrow=diamond;startFill=1;endArrow=classic;endFill=1;" parent="1" source="SLmvfLO-0fDUO9Z2AGR4-3" target="SLmvfLO-0fDUO9Z2AGR4-144" edge="1">
          <mxGeometry relative="1" as="geometry">
            <Array as="points">
              <mxPoint x="99" y="430"/>
              <mxPoint x="99" y="500"/>
              <mxPoint x="499" y="500"/>
            </Array>
          </mxGeometry>
        </mxCell>
        <mxCell id="Bwh5HaH0jvtO-nfgoD8l-3" style="edgeStyle=orthogonalEdgeStyle;rounded=0;orthogonalLoop=1;jettySize=auto;html=1;exitX=1;exitY=0.75;exitDx=0;exitDy=0;entryX=1;entryY=0.5;entryDx=0;entryDy=0;startArrow=diamond;startFill=1;endArrow=diamond;endFill=1;" parent="1" source="SLmvfLO-0fDUO9Z2AGR4-3" target="SLmvfLO-0fDUO9Z2AGR4-11" edge="1">
          <mxGeometry relative="1" as="geometry">
            <Array as="points">
              <mxPoint x="-279" y="447"/>
              <mxPoint x="-9" y="447"/>
              <mxPoint x="-9" y="607"/>
            </Array>
          </mxGeometry>
        </mxCell>
        <mxCell id="Bwh5HaH0jvtO-nfgoD8l-4" style="edgeStyle=orthogonalEdgeStyle;rounded=0;orthogonalLoop=1;jettySize=auto;html=1;exitX=0;exitY=0.5;exitDx=0;exitDy=0;entryX=0;entryY=0.5;entryDx=0;entryDy=0;startArrow=diamond;startFill=1;endArrow=diamond;endFill=1;" parent="1" source="SLmvfLO-0fDUO9Z2AGR4-3" target="SLmvfLO-0fDUO9Z2AGR4-10" edge="1">
          <mxGeometry relative="1" as="geometry"/>
        </mxCell>
        <mxCell id="vMH8rf_PuUaEWhDIgEK9-28" style="edgeStyle=orthogonalEdgeStyle;rounded=0;jumpStyle=none;jumpSize=14;orthogonalLoop=1;jettySize=auto;html=1;exitX=0.5;exitY=1;exitDx=0;exitDy=0;startArrow=none;startFill=0;endArrow=classic;endFill=1;" parent="1" source="SLmvfLO-0fDUO9Z2AGR4-3" target="vMH8rf_PuUaEWhDIgEK9-27" edge="1">
          <mxGeometry relative="1" as="geometry">
            <Array as="points">
              <mxPoint x="-340" y="500"/>
              <mxPoint x="-320" y="500"/>
            </Array>
          </mxGeometry>
        </mxCell>
        <mxCell id="SLmvfLO-0fDUO9Z2AGR4-3" value="GAIA&lt;br&gt;(earth)" style="rounded=0;whiteSpace=wrap;html=1;fillColor=#fff2cc;strokeColor=#d6b656;" parent="1" vertex="1">
          <mxGeometry x="-400" y="400" width="120" height="60" as="geometry"/>
        </mxCell>
        <mxCell id="SLmvfLO-0fDUO9Z2AGR4-40" style="edgeStyle=orthogonalEdgeStyle;rounded=0;orthogonalLoop=1;jettySize=auto;html=1;exitX=1;exitY=0.5;exitDx=0;exitDy=0;entryX=0.5;entryY=0;entryDx=0;entryDy=0;" parent="1" source="SLmvfLO-0fDUO9Z2AGR4-4" target="SLmvfLO-0fDUO9Z2AGR4-15" edge="1">
          <mxGeometry relative="1" as="geometry">
            <Array as="points">
              <mxPoint x="2561" y="430"/>
              <mxPoint x="2561" y="500"/>
              <mxPoint x="1131" y="500"/>
            </Array>
          </mxGeometry>
        </mxCell>
        <mxCell id="SLmvfLO-0fDUO9Z2AGR4-41" style="edgeStyle=orthogonalEdgeStyle;rounded=0;orthogonalLoop=1;jettySize=auto;html=1;exitX=1;exitY=0.5;exitDx=0;exitDy=0;entryX=0.5;entryY=0;entryDx=0;entryDy=0;" parent="1" source="SLmvfLO-0fDUO9Z2AGR4-4" target="SLmvfLO-0fDUO9Z2AGR4-16" edge="1">
          <mxGeometry relative="1" as="geometry">
            <Array as="points">
              <mxPoint x="2562" y="430"/>
              <mxPoint x="2562" y="500"/>
              <mxPoint x="1307" y="500"/>
            </Array>
          </mxGeometry>
        </mxCell>
        <mxCell id="SLmvfLO-0fDUO9Z2AGR4-42" style="edgeStyle=orthogonalEdgeStyle;rounded=0;orthogonalLoop=1;jettySize=auto;html=1;exitX=1;exitY=0.5;exitDx=0;exitDy=0;entryX=0.5;entryY=0;entryDx=0;entryDy=0;" parent="1" source="SLmvfLO-0fDUO9Z2AGR4-4" target="SLmvfLO-0fDUO9Z2AGR4-17" edge="1">
          <mxGeometry relative="1" as="geometry">
            <Array as="points">
              <mxPoint x="2560" y="430"/>
              <mxPoint x="2560" y="500"/>
              <mxPoint x="1480" y="500"/>
            </Array>
          </mxGeometry>
        </mxCell>
        <mxCell id="SLmvfLO-0fDUO9Z2AGR4-43" style="edgeStyle=orthogonalEdgeStyle;rounded=0;orthogonalLoop=1;jettySize=auto;html=1;exitX=1;exitY=0.5;exitDx=0;exitDy=0;" parent="1" source="SLmvfLO-0fDUO9Z2AGR4-4" target="SLmvfLO-0fDUO9Z2AGR4-18" edge="1">
          <mxGeometry relative="1" as="geometry">
            <Array as="points">
              <mxPoint x="2561" y="430"/>
              <mxPoint x="2561" y="500"/>
              <mxPoint x="1661" y="500"/>
            </Array>
          </mxGeometry>
        </mxCell>
        <mxCell id="SLmvfLO-0fDUO9Z2AGR4-44" style="edgeStyle=orthogonalEdgeStyle;rounded=0;orthogonalLoop=1;jettySize=auto;html=1;exitX=1;exitY=0.5;exitDx=0;exitDy=0;" parent="1" source="SLmvfLO-0fDUO9Z2AGR4-4" target="SLmvfLO-0fDUO9Z2AGR4-19" edge="1">
          <mxGeometry relative="1" as="geometry">
            <Array as="points">
              <mxPoint x="2561" y="430"/>
              <mxPoint x="2561" y="500"/>
              <mxPoint x="1851" y="500"/>
            </Array>
          </mxGeometry>
        </mxCell>
        <mxCell id="SLmvfLO-0fDUO9Z2AGR4-45" style="edgeStyle=orthogonalEdgeStyle;rounded=0;orthogonalLoop=1;jettySize=auto;html=1;exitX=1;exitY=0.5;exitDx=0;exitDy=0;entryX=0.5;entryY=0;entryDx=0;entryDy=0;" parent="1" source="SLmvfLO-0fDUO9Z2AGR4-4" target="SLmvfLO-0fDUO9Z2AGR4-20" edge="1">
          <mxGeometry relative="1" as="geometry">
            <Array as="points">
              <mxPoint x="2560" y="430"/>
              <mxPoint x="2560" y="500"/>
              <mxPoint x="2150" y="500"/>
              <mxPoint x="2150" y="550"/>
              <mxPoint x="2050" y="550"/>
            </Array>
          </mxGeometry>
        </mxCell>
        <mxCell id="SLmvfLO-0fDUO9Z2AGR4-51" style="edgeStyle=orthogonalEdgeStyle;rounded=0;orthogonalLoop=1;jettySize=auto;html=1;exitX=1;exitY=0.5;exitDx=0;exitDy=0;entryX=0.5;entryY=0;entryDx=0;entryDy=0;startArrow=diamond;startFill=1;" parent="1" source="SLmvfLO-0fDUO9Z2AGR4-4" target="SLmvfLO-0fDUO9Z2AGR4-14" edge="1">
          <mxGeometry relative="1" as="geometry">
            <Array as="points">
              <mxPoint x="2560" y="430"/>
              <mxPoint x="2560" y="500"/>
              <mxPoint x="920" y="500"/>
            </Array>
          </mxGeometry>
        </mxCell>
        <mxCell id="SLmvfLO-0fDUO9Z2AGR4-4" value="EREBUS&lt;br&gt;(darkness)" style="rounded=0;whiteSpace=wrap;html=1;fillColor=#d5e8d4;strokeColor=#82b366;" parent="1" vertex="1">
          <mxGeometry x="1640" y="400" width="120" height="60" as="geometry"/>
        </mxCell>
        <mxCell id="SLmvfLO-0fDUO9Z2AGR4-31" style="edgeStyle=orthogonalEdgeStyle;rounded=0;orthogonalLoop=1;jettySize=auto;html=1;exitX=0.5;exitY=1;exitDx=0;exitDy=0;entryX=0.5;entryY=0;entryDx=0;entryDy=0;" parent="1" source="SLmvfLO-0fDUO9Z2AGR4-5" target="SLmvfLO-0fDUO9Z2AGR4-26" edge="1">
          <mxGeometry relative="1" as="geometry">
            <Array as="points">
              <mxPoint x="3610" y="510"/>
              <mxPoint x="3280" y="510"/>
            </Array>
          </mxGeometry>
        </mxCell>
        <mxCell id="SLmvfLO-0fDUO9Z2AGR4-32" style="edgeStyle=orthogonalEdgeStyle;rounded=0;orthogonalLoop=1;jettySize=auto;html=1;exitX=0.5;exitY=1;exitDx=0;exitDy=0;entryX=0.5;entryY=0;entryDx=0;entryDy=0;" parent="1" source="SLmvfLO-0fDUO9Z2AGR4-5" target="SLmvfLO-0fDUO9Z2AGR4-27" edge="1">
          <mxGeometry relative="1" as="geometry">
            <Array as="points">
              <mxPoint x="3610" y="510"/>
              <mxPoint x="3440" y="510"/>
            </Array>
          </mxGeometry>
        </mxCell>
        <mxCell id="SLmvfLO-0fDUO9Z2AGR4-33" style="edgeStyle=orthogonalEdgeStyle;rounded=0;orthogonalLoop=1;jettySize=auto;html=1;exitX=0.5;exitY=1;exitDx=0;exitDy=0;entryX=0.575;entryY=0.017;entryDx=0;entryDy=0;entryPerimeter=0;" parent="1" source="SLmvfLO-0fDUO9Z2AGR4-5" target="SLmvfLO-0fDUO9Z2AGR4-28" edge="1">
          <mxGeometry relative="1" as="geometry">
            <Array as="points">
              <mxPoint x="3610" y="510"/>
              <mxPoint x="3629" y="510"/>
            </Array>
          </mxGeometry>
        </mxCell>
        <mxCell id="SLmvfLO-0fDUO9Z2AGR4-38" style="edgeStyle=orthogonalEdgeStyle;rounded=0;orthogonalLoop=1;jettySize=auto;html=1;exitX=0.5;exitY=1;exitDx=0;exitDy=0;entryX=0.5;entryY=0;entryDx=0;entryDy=0;" parent="1" source="SLmvfLO-0fDUO9Z2AGR4-5" target="SLmvfLO-0fDUO9Z2AGR4-30" edge="1">
          <mxGeometry relative="1" as="geometry">
            <Array as="points">
              <mxPoint x="3610" y="510"/>
              <mxPoint x="3890" y="510"/>
              <mxPoint x="3890" y="550"/>
              <mxPoint x="4000" y="550"/>
            </Array>
          </mxGeometry>
        </mxCell>
        <mxCell id="SLmvfLO-0fDUO9Z2AGR4-46" style="edgeStyle=orthogonalEdgeStyle;rounded=0;orthogonalLoop=1;jettySize=auto;html=1;exitX=0;exitY=0.5;exitDx=0;exitDy=0;" parent="1" source="SLmvfLO-0fDUO9Z2AGR4-5" target="SLmvfLO-0fDUO9Z2AGR4-22" edge="1">
          <mxGeometry relative="1" as="geometry">
            <Array as="points">
              <mxPoint x="2560" y="430"/>
              <mxPoint x="2560" y="500"/>
              <mxPoint x="2430" y="500"/>
            </Array>
          </mxGeometry>
        </mxCell>
        <mxCell id="SLmvfLO-0fDUO9Z2AGR4-47" style="edgeStyle=orthogonalEdgeStyle;rounded=0;orthogonalLoop=1;jettySize=auto;html=1;exitX=0;exitY=0.5;exitDx=0;exitDy=0;entryX=0.5;entryY=0;entryDx=0;entryDy=0;" parent="1" source="SLmvfLO-0fDUO9Z2AGR4-5" target="SLmvfLO-0fDUO9Z2AGR4-23" edge="1">
          <mxGeometry relative="1" as="geometry">
            <Array as="points">
              <mxPoint x="2560" y="430"/>
              <mxPoint x="2560" y="500"/>
              <mxPoint x="2820" y="500"/>
              <mxPoint x="2820" y="550"/>
              <mxPoint x="2610" y="550"/>
            </Array>
          </mxGeometry>
        </mxCell>
        <mxCell id="SLmvfLO-0fDUO9Z2AGR4-48" style="edgeStyle=orthogonalEdgeStyle;rounded=0;orthogonalLoop=1;jettySize=auto;html=1;exitX=0;exitY=0.5;exitDx=0;exitDy=0;entryX=0.5;entryY=0;entryDx=0;entryDy=0;" parent="1" source="SLmvfLO-0fDUO9Z2AGR4-5" target="SLmvfLO-0fDUO9Z2AGR4-21" edge="1">
          <mxGeometry relative="1" as="geometry">
            <Array as="points">
              <mxPoint x="2560" y="430"/>
              <mxPoint x="2560" y="500"/>
              <mxPoint x="2150" y="500"/>
              <mxPoint x="2150" y="550"/>
              <mxPoint x="2230" y="550"/>
            </Array>
          </mxGeometry>
        </mxCell>
        <mxCell id="SLmvfLO-0fDUO9Z2AGR4-49" style="edgeStyle=orthogonalEdgeStyle;rounded=0;orthogonalLoop=1;jettySize=auto;html=1;exitX=0;exitY=0.5;exitDx=0;exitDy=0;" parent="1" source="SLmvfLO-0fDUO9Z2AGR4-5" target="SLmvfLO-0fDUO9Z2AGR4-24" edge="1">
          <mxGeometry relative="1" as="geometry">
            <Array as="points">
              <mxPoint x="2560" y="430"/>
              <mxPoint x="2560" y="500"/>
              <mxPoint x="2820" y="500"/>
              <mxPoint x="2820" y="550"/>
              <mxPoint x="2800" y="550"/>
            </Array>
          </mxGeometry>
        </mxCell>
        <mxCell id="SLmvfLO-0fDUO9Z2AGR4-50" style="edgeStyle=orthogonalEdgeStyle;rounded=0;orthogonalLoop=1;jettySize=auto;html=1;exitX=0;exitY=0.5;exitDx=0;exitDy=0;entryX=0.5;entryY=0;entryDx=0;entryDy=0;startArrow=diamond;startFill=1;" parent="1" source="SLmvfLO-0fDUO9Z2AGR4-5" target="SLmvfLO-0fDUO9Z2AGR4-25" edge="1">
          <mxGeometry relative="1" as="geometry">
            <Array as="points">
              <mxPoint x="2560" y="430"/>
              <mxPoint x="2560" y="500"/>
              <mxPoint x="2820" y="500"/>
              <mxPoint x="2820" y="550"/>
              <mxPoint x="2950" y="550"/>
            </Array>
          </mxGeometry>
        </mxCell>
        <mxCell id="SLmvfLO-0fDUO9Z2AGR4-5" value="NYX&lt;br&gt;(night)" style="rounded=0;whiteSpace=wrap;html=1;fillColor=#fff2cc;strokeColor=#d6b656;" parent="1" vertex="1">
          <mxGeometry x="3550" y="400" width="120" height="60" as="geometry"/>
        </mxCell>
        <mxCell id="SLmvfLO-0fDUO9Z2AGR4-78" style="edgeStyle=orthogonalEdgeStyle;rounded=0;orthogonalLoop=1;jettySize=auto;html=1;entryX=0.5;entryY=0;entryDx=0;entryDy=0;" parent="1" target="SLmvfLO-0fDUO9Z2AGR4-62" edge="1">
          <mxGeometry relative="1" as="geometry">
            <Array as="points">
              <mxPoint x="-2360" y="700"/>
              <mxPoint x="-2360" y="730"/>
              <mxPoint x="-5730" y="730"/>
            </Array>
            <mxPoint x="-440" y="700" as="sourcePoint"/>
          </mxGeometry>
        </mxCell>
        <mxCell id="SLmvfLO-0fDUO9Z2AGR4-79" style="edgeStyle=orthogonalEdgeStyle;rounded=0;orthogonalLoop=1;jettySize=auto;html=1;entryX=0.5;entryY=0;entryDx=0;entryDy=0;" parent="1" target="SLmvfLO-0fDUO9Z2AGR4-61" edge="1">
          <mxGeometry relative="1" as="geometry">
            <Array as="points">
              <mxPoint x="-2360" y="700"/>
              <mxPoint x="-2360" y="730"/>
              <mxPoint x="-5520" y="730"/>
            </Array>
            <mxPoint x="-180" y="700" as="sourcePoint"/>
          </mxGeometry>
        </mxCell>
        <mxCell id="SLmvfLO-0fDUO9Z2AGR4-80" style="edgeStyle=orthogonalEdgeStyle;rounded=0;orthogonalLoop=1;jettySize=auto;html=1;entryX=0.5;entryY=0;entryDx=0;entryDy=0;" parent="1" target="SLmvfLO-0fDUO9Z2AGR4-60" edge="1">
          <mxGeometry relative="1" as="geometry">
            <Array as="points">
              <mxPoint x="-59" y="607"/>
              <mxPoint x="-59" y="700"/>
              <mxPoint x="-2359" y="700"/>
              <mxPoint x="-2359" y="730"/>
              <mxPoint x="-5910" y="730"/>
            </Array>
            <mxPoint x="-119" y="607" as="sourcePoint"/>
          </mxGeometry>
        </mxCell>
        <mxCell id="SLmvfLO-0fDUO9Z2AGR4-81" style="edgeStyle=orthogonalEdgeStyle;rounded=0;orthogonalLoop=1;jettySize=auto;html=1;entryX=0.5;entryY=0;entryDx=0;entryDy=0;" parent="1" target="SLmvfLO-0fDUO9Z2AGR4-59" edge="1">
          <mxGeometry relative="1" as="geometry">
            <Array as="points">
              <mxPoint x="-2360" y="700"/>
              <mxPoint x="-2360" y="730"/>
              <mxPoint x="-2760" y="730"/>
            </Array>
            <mxPoint x="-300" y="700" as="sourcePoint"/>
          </mxGeometry>
        </mxCell>
        <mxCell id="SLmvfLO-0fDUO9Z2AGR4-82" style="edgeStyle=orthogonalEdgeStyle;rounded=0;orthogonalLoop=1;jettySize=auto;html=1;" parent="1" target="SLmvfLO-0fDUO9Z2AGR4-66" edge="1">
          <mxGeometry relative="1" as="geometry">
            <Array as="points">
              <mxPoint x="-2360" y="700"/>
              <mxPoint x="-2360" y="730"/>
              <mxPoint x="-2980" y="730"/>
            </Array>
            <mxPoint x="-180" y="700" as="sourcePoint"/>
          </mxGeometry>
        </mxCell>
        <mxCell id="SLmvfLO-0fDUO9Z2AGR4-83" style="edgeStyle=orthogonalEdgeStyle;rounded=0;orthogonalLoop=1;jettySize=auto;html=1;entryX=0.5;entryY=0;entryDx=0;entryDy=0;" parent="1" target="SLmvfLO-0fDUO9Z2AGR4-64" edge="1">
          <mxGeometry relative="1" as="geometry">
            <Array as="points">
              <mxPoint x="-2360" y="700"/>
              <mxPoint x="-2360" y="730"/>
              <mxPoint x="-4750" y="730"/>
            </Array>
            <mxPoint x="-450" y="700" as="sourcePoint"/>
          </mxGeometry>
        </mxCell>
        <mxCell id="SLmvfLO-0fDUO9Z2AGR4-84" style="edgeStyle=orthogonalEdgeStyle;rounded=0;orthogonalLoop=1;jettySize=auto;html=1;entryX=0.5;entryY=0;entryDx=0;entryDy=0;" parent="1" target="SLmvfLO-0fDUO9Z2AGR4-65" edge="1">
          <mxGeometry relative="1" as="geometry">
            <Array as="points">
              <mxPoint x="-2360" y="700"/>
              <mxPoint x="-2360" y="730"/>
              <mxPoint x="-5120" y="730"/>
            </Array>
            <mxPoint x="-250" y="700" as="sourcePoint"/>
          </mxGeometry>
        </mxCell>
        <mxCell id="SLmvfLO-0fDUO9Z2AGR4-85" style="edgeStyle=orthogonalEdgeStyle;rounded=0;orthogonalLoop=1;jettySize=auto;html=1;entryX=0.5;entryY=0;entryDx=0;entryDy=0;" parent="1" target="SLmvfLO-0fDUO9Z2AGR4-63" edge="1">
          <mxGeometry relative="1" as="geometry">
            <Array as="points">
              <mxPoint x="-2360" y="700"/>
              <mxPoint x="-2360" y="730"/>
              <mxPoint x="-2410" y="730"/>
            </Array>
            <mxPoint x="-770" y="700" as="sourcePoint"/>
          </mxGeometry>
        </mxCell>
        <mxCell id="SLmvfLO-0fDUO9Z2AGR4-86" style="edgeStyle=orthogonalEdgeStyle;rounded=0;orthogonalLoop=1;jettySize=auto;html=1;" parent="1" target="SLmvfLO-0fDUO9Z2AGR4-67" edge="1">
          <mxGeometry relative="1" as="geometry">
            <Array as="points">
              <mxPoint x="-2360" y="700"/>
              <mxPoint x="-2360" y="730"/>
              <mxPoint x="-1520" y="730"/>
            </Array>
            <mxPoint x="-260" y="700" as="sourcePoint"/>
          </mxGeometry>
        </mxCell>
        <mxCell id="SLmvfLO-0fDUO9Z2AGR4-87" style="edgeStyle=orthogonalEdgeStyle;rounded=0;orthogonalLoop=1;jettySize=auto;html=1;entryX=0.5;entryY=0;entryDx=0;entryDy=0;" parent="1" target="SLmvfLO-0fDUO9Z2AGR4-70" edge="1">
          <mxGeometry relative="1" as="geometry">
            <Array as="points">
              <mxPoint x="-2360" y="700"/>
              <mxPoint x="-2360" y="730"/>
              <mxPoint x="-1760" y="730"/>
            </Array>
            <mxPoint x="-440" y="700" as="sourcePoint"/>
          </mxGeometry>
        </mxCell>
        <mxCell id="SLmvfLO-0fDUO9Z2AGR4-88" style="edgeStyle=orthogonalEdgeStyle;rounded=0;orthogonalLoop=1;jettySize=auto;html=1;" parent="1" target="SLmvfLO-0fDUO9Z2AGR4-68" edge="1">
          <mxGeometry relative="1" as="geometry">
            <Array as="points">
              <mxPoint x="-2360" y="700"/>
              <mxPoint x="-2360" y="730"/>
              <mxPoint x="-1960" y="730"/>
            </Array>
            <mxPoint x="-530" y="700" as="sourcePoint"/>
          </mxGeometry>
        </mxCell>
        <mxCell id="SLmvfLO-0fDUO9Z2AGR4-89" style="edgeStyle=orthogonalEdgeStyle;rounded=0;orthogonalLoop=1;jettySize=auto;html=1;" parent="1" target="SLmvfLO-0fDUO9Z2AGR4-69" edge="1">
          <mxGeometry relative="1" as="geometry">
            <Array as="points">
              <mxPoint x="-2360" y="700"/>
              <mxPoint x="-2360" y="730"/>
              <mxPoint x="-2160" y="730"/>
            </Array>
            <mxPoint x="-810" y="700" as="sourcePoint"/>
          </mxGeometry>
        </mxCell>
        <mxCell id="SLmvfLO-0fDUO9Z2AGR4-90" style="edgeStyle=orthogonalEdgeStyle;rounded=0;orthogonalLoop=1;jettySize=auto;html=1;entryX=0.5;entryY=0;entryDx=0;entryDy=0;" parent="1" target="SLmvfLO-0fDUO9Z2AGR4-72" edge="1">
          <mxGeometry relative="1" as="geometry">
            <Array as="points">
              <mxPoint x="-690" y="700"/>
              <mxPoint x="-690" y="730"/>
              <mxPoint x="-610" y="730"/>
            </Array>
            <mxPoint x="-530" y="700" as="sourcePoint"/>
            <mxPoint x="-450" y="740" as="targetPoint"/>
          </mxGeometry>
        </mxCell>
        <mxCell id="SLmvfLO-0fDUO9Z2AGR4-91" style="edgeStyle=orthogonalEdgeStyle;rounded=0;orthogonalLoop=1;jettySize=auto;html=1;entryX=0.5;entryY=0;entryDx=0;entryDy=0;" parent="1" target="SLmvfLO-0fDUO9Z2AGR4-73" edge="1">
          <mxGeometry relative="1" as="geometry">
            <Array as="points">
              <mxPoint x="-690" y="700"/>
              <mxPoint x="-690" y="730"/>
              <mxPoint x="-760" y="730"/>
            </Array>
            <mxPoint x="-520" y="700" as="sourcePoint"/>
          </mxGeometry>
        </mxCell>
        <mxCell id="SLmvfLO-0fDUO9Z2AGR4-92" style="edgeStyle=orthogonalEdgeStyle;rounded=0;orthogonalLoop=1;jettySize=auto;html=1;entryX=0.5;entryY=0;entryDx=0;entryDy=0;" parent="1" target="SLmvfLO-0fDUO9Z2AGR4-74" edge="1">
          <mxGeometry relative="1" as="geometry">
            <Array as="points">
              <mxPoint x="-690" y="700"/>
              <mxPoint x="-690" y="730"/>
              <mxPoint x="-910" y="730"/>
            </Array>
            <mxPoint x="-490" y="700" as="sourcePoint"/>
          </mxGeometry>
        </mxCell>
        <mxCell id="SLmvfLO-0fDUO9Z2AGR4-93" style="edgeStyle=orthogonalEdgeStyle;rounded=0;orthogonalLoop=1;jettySize=auto;html=1;exitX=1;exitY=0.5;exitDx=0;exitDy=0;" parent="1" source="SLmvfLO-0fDUO9Z2AGR4-11" target="SLmvfLO-0fDUO9Z2AGR4-75" edge="1">
          <mxGeometry relative="1" as="geometry">
            <Array as="points">
              <mxPoint x="-59" y="607"/>
              <mxPoint x="-59" y="700"/>
              <mxPoint x="-1149" y="700"/>
              <mxPoint x="-1149" y="730"/>
              <mxPoint x="-1060" y="730"/>
            </Array>
            <mxPoint x="-120" y="600" as="sourcePoint"/>
          </mxGeometry>
        </mxCell>
        <mxCell id="SLmvfLO-0fDUO9Z2AGR4-94" style="edgeStyle=orthogonalEdgeStyle;rounded=0;orthogonalLoop=1;jettySize=auto;html=1;entryX=0.5;entryY=0;entryDx=0;entryDy=0;" parent="1" target="SLmvfLO-0fDUO9Z2AGR4-76" edge="1">
          <mxGeometry relative="1" as="geometry">
            <Array as="points">
              <mxPoint x="-1150" y="700"/>
              <mxPoint x="-1150" y="730"/>
              <mxPoint x="-1210" y="730"/>
            </Array>
            <mxPoint x="-100" y="700" as="sourcePoint"/>
          </mxGeometry>
        </mxCell>
        <mxCell id="SLmvfLO-0fDUO9Z2AGR4-95" style="edgeStyle=orthogonalEdgeStyle;rounded=0;orthogonalLoop=1;jettySize=auto;html=1;" parent="1" target="SLmvfLO-0fDUO9Z2AGR4-77" edge="1">
          <mxGeometry relative="1" as="geometry">
            <Array as="points">
              <mxPoint x="-1150" y="700"/>
              <mxPoint x="-1150" y="730"/>
              <mxPoint x="-1360" y="730"/>
            </Array>
            <mxPoint x="-110" y="700" as="sourcePoint"/>
          </mxGeometry>
        </mxCell>
        <mxCell id="Bwh5HaH0jvtO-nfgoD8l-5" style="edgeStyle=orthogonalEdgeStyle;rounded=0;orthogonalLoop=1;jettySize=auto;html=1;startArrow=none;startFill=0;endArrow=classic;endFill=1;jumpStyle=none;jumpSize=14;exitX=0;exitY=0.5;exitDx=0;exitDy=0;" parent="1" source="SLmvfLO-0fDUO9Z2AGR4-10" target="SLmvfLO-0fDUO9Z2AGR4-71" edge="1">
          <mxGeometry relative="1" as="geometry">
            <mxPoint x="-560" y="540" as="sourcePoint"/>
            <Array as="points">
              <mxPoint x="-600" y="607"/>
              <mxPoint x="-600" y="650"/>
              <mxPoint x="-6140" y="650"/>
            </Array>
          </mxGeometry>
        </mxCell>
        <mxCell id="SLmvfLO-0fDUO9Z2AGR4-10" value="PONTUS&lt;br&gt;(sea)" style="rounded=0;whiteSpace=wrap;html=1;fillColor=#d5e8d4;strokeColor=#82b366;" parent="1" vertex="1">
          <mxGeometry x="-520" y="577" width="120" height="60" as="geometry"/>
        </mxCell>
        <mxCell id="Bwh5HaH0jvtO-nfgoD8l-11" style="edgeStyle=orthogonalEdgeStyle;rounded=0;jumpStyle=arc;jumpSize=14;orthogonalLoop=1;jettySize=auto;html=1;exitX=0.5;exitY=1;exitDx=0;exitDy=0;startArrow=none;startFill=0;endArrow=classic;endFill=1;entryX=0.5;entryY=0;entryDx=0;entryDy=0;" parent="1" source="SLmvfLO-0fDUO9Z2AGR4-11" target="Bwh5HaH0jvtO-nfgoD8l-9" edge="1">
          <mxGeometry relative="1" as="geometry">
            <mxPoint x="760" y="780" as="targetPoint"/>
            <Array as="points">
              <mxPoint x="-180" y="720"/>
              <mxPoint x="80" y="720"/>
            </Array>
          </mxGeometry>
        </mxCell>
        <mxCell id="Bwh5HaH0jvtO-nfgoD8l-12" style="edgeStyle=orthogonalEdgeStyle;rounded=0;jumpStyle=arc;jumpSize=14;orthogonalLoop=1;jettySize=auto;html=1;exitX=0.5;exitY=1;exitDx=0;exitDy=0;entryX=0.5;entryY=0;entryDx=0;entryDy=0;startArrow=none;startFill=0;endArrow=classic;endFill=1;" parent="1" source="SLmvfLO-0fDUO9Z2AGR4-11" target="Bwh5HaH0jvtO-nfgoD8l-10" edge="1">
          <mxGeometry relative="1" as="geometry">
            <Array as="points">
              <mxPoint x="-180" y="720"/>
              <mxPoint x="210" y="720"/>
            </Array>
          </mxGeometry>
        </mxCell>
        <mxCell id="Bwh5HaH0jvtO-nfgoD8l-13" style="edgeStyle=orthogonalEdgeStyle;rounded=0;jumpStyle=arc;jumpSize=14;orthogonalLoop=1;jettySize=auto;html=1;exitX=0.5;exitY=1;exitDx=0;exitDy=0;startArrow=none;startFill=0;endArrow=classic;endFill=1;" parent="1" source="SLmvfLO-0fDUO9Z2AGR4-11" target="Bwh5HaH0jvtO-nfgoD8l-6" edge="1">
          <mxGeometry relative="1" as="geometry">
            <Array as="points">
              <mxPoint x="-180" y="720"/>
              <mxPoint x="-340" y="720"/>
              <mxPoint x="-340" y="740"/>
              <mxPoint x="-460" y="740"/>
            </Array>
          </mxGeometry>
        </mxCell>
        <mxCell id="Bwh5HaH0jvtO-nfgoD8l-14" style="edgeStyle=orthogonalEdgeStyle;rounded=0;jumpStyle=arc;jumpSize=14;orthogonalLoop=1;jettySize=auto;html=1;exitX=0.5;exitY=1;exitDx=0;exitDy=0;entryX=0.5;entryY=0;entryDx=0;entryDy=0;startArrow=none;startFill=0;endArrow=classic;endFill=1;" parent="1" source="SLmvfLO-0fDUO9Z2AGR4-11" target="Bwh5HaH0jvtO-nfgoD8l-7" edge="1">
          <mxGeometry relative="1" as="geometry">
            <Array as="points">
              <mxPoint x="-180" y="720"/>
              <mxPoint x="-340" y="720"/>
              <mxPoint x="-340" y="740"/>
              <mxPoint x="-290" y="740"/>
            </Array>
          </mxGeometry>
        </mxCell>
        <mxCell id="Bwh5HaH0jvtO-nfgoD8l-15" style="edgeStyle=orthogonalEdgeStyle;rounded=0;jumpStyle=arc;jumpSize=14;orthogonalLoop=1;jettySize=auto;html=1;exitX=0.5;exitY=1;exitDx=0;exitDy=0;startArrow=none;startFill=0;endArrow=classic;endFill=1;" parent="1" source="SLmvfLO-0fDUO9Z2AGR4-11" target="Bwh5HaH0jvtO-nfgoD8l-8" edge="1">
          <mxGeometry relative="1" as="geometry">
            <Array as="points">
              <mxPoint x="-180" y="720"/>
              <mxPoint x="-340" y="720"/>
              <mxPoint x="-340" y="740"/>
              <mxPoint x="-80" y="740"/>
            </Array>
          </mxGeometry>
        </mxCell>
        <mxCell id="Bwh5HaH0jvtO-nfgoD8l-28" style="edgeStyle=orthogonalEdgeStyle;rounded=0;jumpStyle=arc;jumpSize=14;orthogonalLoop=1;jettySize=auto;html=1;exitX=0.5;exitY=1;exitDx=0;exitDy=0;startArrow=none;startFill=0;endArrow=classic;endFill=1;" parent="1" source="SLmvfLO-0fDUO9Z2AGR4-11" target="Bwh5HaH0jvtO-nfgoD8l-27" edge="1">
          <mxGeometry relative="1" as="geometry">
            <Array as="points">
              <mxPoint x="-180" y="720"/>
              <mxPoint x="360" y="720"/>
            </Array>
          </mxGeometry>
        </mxCell>
        <mxCell id="SLmvfLO-0fDUO9Z2AGR4-11" value="OURANOS&lt;br&gt;(sky)" style="rounded=0;whiteSpace=wrap;html=1;fillColor=#d5e8d4;strokeColor=#82b366;" parent="1" vertex="1">
          <mxGeometry x="-240" y="577" width="120" height="60" as="geometry"/>
        </mxCell>
        <mxCell id="SLmvfLO-0fDUO9Z2AGR4-53" style="edgeStyle=orthogonalEdgeStyle;rounded=0;orthogonalLoop=1;jettySize=auto;html=1;exitX=1;exitY=0.5;exitDx=0;exitDy=0;startArrow=diamond;startFill=1;" parent="1" source="SLmvfLO-0fDUO9Z2AGR4-14" target="SLmvfLO-0fDUO9Z2AGR4-52" edge="1">
          <mxGeometry relative="1" as="geometry"/>
        </mxCell>
        <mxCell id="SLmvfLO-0fDUO9Z2AGR4-14" value="AETHER&lt;br&gt;(lightness)" style="rounded=0;whiteSpace=wrap;html=1;" parent="1" vertex="1">
          <mxGeometry x="860" y="580" width="120" height="60" as="geometry"/>
        </mxCell>
        <mxCell id="SLmvfLO-0fDUO9Z2AGR4-54" style="edgeStyle=orthogonalEdgeStyle;rounded=0;orthogonalLoop=1;jettySize=auto;html=1;exitX=0;exitY=0.5;exitDx=0;exitDy=0;entryX=0.5;entryY=0;entryDx=0;entryDy=0;startArrow=diamond;startFill=1;" parent="1" source="SLmvfLO-0fDUO9Z2AGR4-15" target="SLmvfLO-0fDUO9Z2AGR4-52" edge="1">
          <mxGeometry relative="1" as="geometry"/>
        </mxCell>
        <mxCell id="SLmvfLO-0fDUO9Z2AGR4-15" value="HEMERA&lt;br&gt;(day)" style="rounded=0;whiteSpace=wrap;html=1;" parent="1" vertex="1">
          <mxGeometry x="1070" y="580" width="120" height="60" as="geometry"/>
        </mxCell>
        <mxCell id="SLmvfLO-0fDUO9Z2AGR4-16" value="ERIS / DISCORDIA&lt;br&gt;(strife)" style="rounded=0;whiteSpace=wrap;html=1;fillColor=#fff2cc;strokeColor=#d6b656;" parent="1" vertex="1">
          <mxGeometry x="1247" y="580" width="120" height="60" as="geometry"/>
        </mxCell>
        <mxCell id="SLmvfLO-0fDUO9Z2AGR4-17" value="NEMESIS / INVIDIA&lt;br&gt;(retribution)" style="rounded=0;whiteSpace=wrap;html=1;fillColor=#fff2cc;strokeColor=#d6b656;" parent="1" vertex="1">
          <mxGeometry x="1420" y="580" width="120" height="60" as="geometry"/>
        </mxCell>
        <mxCell id="SLmvfLO-0fDUO9Z2AGR4-18" value="CHARON" style="rounded=0;whiteSpace=wrap;html=1;fillColor=#d5e8d4;strokeColor=#82b366;" parent="1" vertex="1">
          <mxGeometry x="1600.5" y="577" width="120" height="60" as="geometry"/>
        </mxCell>
        <mxCell id="Bwh5HaH0jvtO-nfgoD8l-2" style="edgeStyle=orthogonalEdgeStyle;rounded=0;orthogonalLoop=1;jettySize=auto;html=1;exitX=0.5;exitY=1;exitDx=0;exitDy=0;" parent="1" source="SLmvfLO-0fDUO9Z2AGR4-19" target="Bwh5HaH0jvtO-nfgoD8l-1" edge="1">
          <mxGeometry relative="1" as="geometry"/>
        </mxCell>
        <mxCell id="SLmvfLO-0fDUO9Z2AGR4-19" value="HYPNOS&lt;br&gt;(sleep)" style="rounded=0;whiteSpace=wrap;html=1;" parent="1" vertex="1">
          <mxGeometry x="1790" y="577" width="120" height="60" as="geometry"/>
        </mxCell>
        <mxCell id="SLmvfLO-0fDUO9Z2AGR4-20" value="PHOBETOR&lt;br&gt;(nightmare)" style="rounded=0;whiteSpace=wrap;html=1;fillColor=#d5e8d4;strokeColor=#82b366;" parent="1" vertex="1">
          <mxGeometry x="1990" y="577" width="120" height="60" as="geometry"/>
        </mxCell>
        <mxCell id="SLmvfLO-0fDUO9Z2AGR4-21" value="PHANTASOS" style="rounded=0;whiteSpace=wrap;html=1;" parent="1" vertex="1">
          <mxGeometry x="2170" y="580" width="120" height="60" as="geometry"/>
        </mxCell>
        <mxCell id="SLmvfLO-0fDUO9Z2AGR4-22" value="THANATOS / MORS&lt;br&gt;(death)" style="rounded=0;whiteSpace=wrap;html=1;fillColor=#d5e8d4;strokeColor=#82b366;" parent="1" vertex="1">
          <mxGeometry x="2370" y="577" width="120" height="60" as="geometry"/>
        </mxCell>
        <mxCell id="SLmvfLO-0fDUO9Z2AGR4-23" value="" style="rounded=0;whiteSpace=wrap;html=1;fillColor=#fff2cc;strokeColor=#d6b656;" parent="1" vertex="1">
          <mxGeometry x="2550" y="580" width="120" height="60" as="geometry"/>
        </mxCell>
        <mxCell id="SLmvfLO-0fDUO9Z2AGR4-24" value="" style="rounded=0;whiteSpace=wrap;html=1;fillColor=#fff2cc;strokeColor=#d6b656;" parent="1" vertex="1">
          <mxGeometry x="2730" y="577" width="120" height="60" as="geometry"/>
        </mxCell>
        <mxCell id="SLmvfLO-0fDUO9Z2AGR4-25" value="" style="rounded=0;whiteSpace=wrap;html=1;fillColor=#fff2cc;strokeColor=#d6b656;" parent="1" vertex="1">
          <mxGeometry x="2890" y="577" width="120" height="60" as="geometry"/>
        </mxCell>
        <mxCell id="SLmvfLO-0fDUO9Z2AGR4-26" value="MOROS&lt;br&gt;(doom)" style="rounded=0;whiteSpace=wrap;html=1;" parent="1" vertex="1">
          <mxGeometry x="3220" y="577" width="120" height="60" as="geometry"/>
        </mxCell>
        <mxCell id="SLmvfLO-0fDUO9Z2AGR4-27" value="APATE / FRAUS&lt;br&gt;(deceit)" style="rounded=0;whiteSpace=wrap;html=1;fillColor=#fff2cc;strokeColor=#d6b656;" parent="1" vertex="1">
          <mxGeometry x="3380" y="580" width="120" height="60" as="geometry"/>
        </mxCell>
        <mxCell id="SLmvfLO-0fDUO9Z2AGR4-28" value="GERAS / SENECTUS&lt;br&gt;(old age)" style="rounded=0;whiteSpace=wrap;html=1;fillColor=#d5e8d4;strokeColor=#82b366;" parent="1" vertex="1">
          <mxGeometry x="3560" y="580" width="120" height="60" as="geometry"/>
        </mxCell>
        <mxCell id="SLmvfLO-0fDUO9Z2AGR4-29" value="OIZYS / MISERIA&lt;br&gt;(misery)" style="rounded=0;whiteSpace=wrap;html=1;fillColor=#fff2cc;strokeColor=#d6b656;" parent="1" vertex="1">
          <mxGeometry x="3720" y="580" width="120" height="60" as="geometry"/>
        </mxCell>
        <mxCell id="Bwh5HaH0jvtO-nfgoD8l-101" style="edgeStyle=orthogonalEdgeStyle;rounded=0;jumpStyle=none;jumpSize=14;orthogonalLoop=1;jettySize=auto;html=1;entryX=0.5;entryY=0;entryDx=0;entryDy=0;startArrow=none;startFill=0;endArrow=classic;endFill=1;" parent="1" target="Bwh5HaH0jvtO-nfgoD8l-98" edge="1">
          <mxGeometry relative="1" as="geometry">
            <mxPoint x="3820" y="510" as="sourcePoint"/>
            <Array as="points">
              <mxPoint x="4300" y="510"/>
              <mxPoint x="4300" y="550"/>
              <mxPoint x="4170" y="550"/>
            </Array>
          </mxGeometry>
        </mxCell>
        <mxCell id="Bwh5HaH0jvtO-nfgoD8l-102" style="edgeStyle=orthogonalEdgeStyle;rounded=0;jumpStyle=none;jumpSize=14;orthogonalLoop=1;jettySize=auto;html=1;entryX=0.5;entryY=0;entryDx=0;entryDy=0;startArrow=none;startFill=0;endArrow=classic;endFill=1;" parent="1" target="Bwh5HaH0jvtO-nfgoD8l-99" edge="1">
          <mxGeometry relative="1" as="geometry">
            <mxPoint x="4080" y="510" as="sourcePoint"/>
            <Array as="points">
              <mxPoint x="4300" y="510"/>
              <mxPoint x="4300" y="550"/>
              <mxPoint x="4330" y="550"/>
            </Array>
          </mxGeometry>
        </mxCell>
        <mxCell id="SLmvfLO-0fDUO9Z2AGR4-30" value="MOMOS&lt;br&gt;(mockery)" style="rounded=0;whiteSpace=wrap;html=1;fillColor=#d5e8d4;strokeColor=#82b366;" parent="1" vertex="1">
          <mxGeometry x="3940" y="580" width="120" height="60" as="geometry"/>
        </mxCell>
        <mxCell id="SLmvfLO-0fDUO9Z2AGR4-37" style="edgeStyle=orthogonalEdgeStyle;rounded=0;orthogonalLoop=1;jettySize=auto;html=1;exitX=0.5;exitY=1;exitDx=0;exitDy=0;elbow=vertical;entryX=0.5;entryY=0;entryDx=0;entryDy=0;" parent="1" source="SLmvfLO-0fDUO9Z2AGR4-5" target="SLmvfLO-0fDUO9Z2AGR4-29" edge="1">
          <mxGeometry relative="1" as="geometry">
            <mxPoint x="3610" y="470" as="sourcePoint"/>
            <mxPoint x="3770" y="554" as="targetPoint"/>
            <Array as="points">
              <mxPoint x="3610" y="510"/>
              <mxPoint x="3890" y="510"/>
              <mxPoint x="3890" y="550"/>
              <mxPoint x="3780" y="550"/>
            </Array>
          </mxGeometry>
        </mxCell>
        <mxCell id="SLmvfLO-0fDUO9Z2AGR4-52" value="THALASSA&lt;br&gt;(sea)" style="rounded=0;whiteSpace=wrap;html=1;fillColor=#fff2cc;strokeColor=#d6b656;" parent="1" vertex="1">
          <mxGeometry x="960" y="760" width="120" height="60" as="geometry"/>
        </mxCell>
        <mxCell id="SLmvfLO-0fDUO9Z2AGR4-55" value="ONEROI" style="text;html=1;strokeColor=none;fillColor=none;align=center;verticalAlign=middle;whiteSpace=wrap;rounded=0;" parent="1" vertex="1">
          <mxGeometry x="2100" y="530" width="40" height="20" as="geometry"/>
        </mxCell>
        <mxCell id="SLmvfLO-0fDUO9Z2AGR4-57" value="HESPERIDES" style="text;html=1;strokeColor=none;fillColor=none;align=center;verticalAlign=middle;whiteSpace=wrap;rounded=0;" parent="1" vertex="1">
          <mxGeometry x="2750" y="530" width="40" height="20" as="geometry"/>
        </mxCell>
        <mxCell id="SLmvfLO-0fDUO9Z2AGR4-117" style="edgeStyle=orthogonalEdgeStyle;rounded=0;orthogonalLoop=1;jettySize=auto;html=1;exitX=0;exitY=0.5;exitDx=0;exitDy=0;startArrow=diamond;startFill=1;endArrow=classic;endFill=1;entryX=0.5;entryY=0;entryDx=0;entryDy=0;" parent="1" source="SLmvfLO-0fDUO9Z2AGR4-59" target="SLmvfLO-0fDUO9Z2AGR4-107" edge="1">
          <mxGeometry relative="1" as="geometry">
            <Array as="points">
              <mxPoint x="-2870" y="790"/>
              <mxPoint x="-2870" y="960"/>
              <mxPoint x="-3050" y="960"/>
              <mxPoint x="-3050" y="990"/>
              <mxPoint x="-2730" y="990"/>
            </Array>
          </mxGeometry>
        </mxCell>
        <mxCell id="SLmvfLO-0fDUO9Z2AGR4-118" style="edgeStyle=orthogonalEdgeStyle;rounded=0;orthogonalLoop=1;jettySize=auto;html=1;exitX=0;exitY=0.5;exitDx=0;exitDy=0;entryX=0.5;entryY=0;entryDx=0;entryDy=0;startArrow=none;startFill=0;endArrow=classic;endFill=1;" parent="1" source="SLmvfLO-0fDUO9Z2AGR4-59" target="SLmvfLO-0fDUO9Z2AGR4-108" edge="1">
          <mxGeometry relative="1" as="geometry">
            <Array as="points">
              <mxPoint x="-2870" y="790"/>
              <mxPoint x="-2870" y="960"/>
              <mxPoint x="-3050" y="960"/>
              <mxPoint x="-3050" y="990"/>
              <mxPoint x="-3390" y="990"/>
            </Array>
          </mxGeometry>
        </mxCell>
        <mxCell id="SLmvfLO-0fDUO9Z2AGR4-119" style="edgeStyle=orthogonalEdgeStyle;rounded=0;orthogonalLoop=1;jettySize=auto;html=1;exitX=0;exitY=0.5;exitDx=0;exitDy=0;entryX=0.5;entryY=0;entryDx=0;entryDy=0;startArrow=none;startFill=0;endArrow=classic;endFill=1;" parent="1" source="SLmvfLO-0fDUO9Z2AGR4-59" target="SLmvfLO-0fDUO9Z2AGR4-104" edge="1">
          <mxGeometry relative="1" as="geometry">
            <Array as="points">
              <mxPoint x="-2870" y="790"/>
              <mxPoint x="-2870" y="960"/>
              <mxPoint x="-3920" y="960"/>
              <mxPoint x="-3920" y="990"/>
              <mxPoint x="-4000" y="990"/>
            </Array>
          </mxGeometry>
        </mxCell>
        <mxCell id="SLmvfLO-0fDUO9Z2AGR4-59" value="1 OCEANUS&lt;br&gt;(tides and currents)" style="rounded=0;whiteSpace=wrap;html=1;fillColor=#d5e8d4;strokeColor=#82b366;" parent="1" vertex="1">
          <mxGeometry x="-2820" y="760" width="120" height="60" as="geometry"/>
        </mxCell>
        <mxCell id="SLmvfLO-0fDUO9Z2AGR4-102" style="edgeStyle=orthogonalEdgeStyle;rounded=0;orthogonalLoop=1;jettySize=auto;html=1;exitX=0;exitY=0.5;exitDx=0;exitDy=0;startArrow=diamond;startFill=1;endArrow=none;endFill=0;" parent="1" source="SLmvfLO-0fDUO9Z2AGR4-60" edge="1">
          <mxGeometry relative="1" as="geometry">
            <mxPoint x="-6020" y="860" as="targetPoint"/>
            <Array as="points">
              <mxPoint x="-6020" y="790"/>
            </Array>
          </mxGeometry>
        </mxCell>
        <mxCell id="SLmvfLO-0fDUO9Z2AGR4-60" value="9 CRIUS" style="rounded=0;whiteSpace=wrap;html=1;fillColor=#d5e8d4;strokeColor=#82b366;" parent="1" vertex="1">
          <mxGeometry x="-5970" y="760" width="120" height="60" as="geometry"/>
        </mxCell>
        <mxCell id="Bwh5HaH0jvtO-nfgoD8l-42" style="edgeStyle=orthogonalEdgeStyle;rounded=0;jumpStyle=none;jumpSize=14;orthogonalLoop=1;jettySize=auto;html=1;exitX=0;exitY=0.5;exitDx=0;exitDy=0;entryX=0.5;entryY=0;entryDx=0;entryDy=0;startArrow=diamond;startFill=1;endArrow=classic;endFill=1;" parent="1" source="SLmvfLO-0fDUO9Z2AGR4-61" target="Bwh5HaH0jvtO-nfgoD8l-33" edge="1">
          <mxGeometry relative="1" as="geometry">
            <Array as="points">
              <mxPoint x="-5620" y="790"/>
              <mxPoint x="-5620" y="960"/>
              <mxPoint x="-6900" y="960"/>
            </Array>
          </mxGeometry>
        </mxCell>
        <mxCell id="Bwh5HaH0jvtO-nfgoD8l-44" style="edgeStyle=orthogonalEdgeStyle;rounded=0;jumpStyle=none;jumpSize=14;orthogonalLoop=1;jettySize=auto;html=1;exitX=0;exitY=0.5;exitDx=0;exitDy=0;entryX=0.5;entryY=0;entryDx=0;entryDy=0;startArrow=none;startFill=0;endArrow=classic;endFill=1;" parent="1" source="SLmvfLO-0fDUO9Z2AGR4-61" target="Bwh5HaH0jvtO-nfgoD8l-31" edge="1">
          <mxGeometry relative="1" as="geometry">
            <Array as="points">
              <mxPoint x="-5620" y="790"/>
              <mxPoint x="-5620" y="960"/>
              <mxPoint x="-6700" y="960"/>
            </Array>
          </mxGeometry>
        </mxCell>
        <mxCell id="Bwh5HaH0jvtO-nfgoD8l-45" style="edgeStyle=orthogonalEdgeStyle;rounded=0;jumpStyle=none;jumpSize=14;orthogonalLoop=1;jettySize=auto;html=1;exitX=0;exitY=0.5;exitDx=0;exitDy=0;entryX=0.5;entryY=0;entryDx=0;entryDy=0;startArrow=diamond;startFill=1;endArrow=classic;endFill=1;" parent="1" source="SLmvfLO-0fDUO9Z2AGR4-61" target="Bwh5HaH0jvtO-nfgoD8l-30" edge="1">
          <mxGeometry relative="1" as="geometry">
            <Array as="points">
              <mxPoint x="-5620" y="790"/>
              <mxPoint x="-5620" y="960"/>
              <mxPoint x="-5520" y="960"/>
            </Array>
          </mxGeometry>
        </mxCell>
        <mxCell id="SLmvfLO-0fDUO9Z2AGR4-61" value="11 RHEA" style="rounded=0;whiteSpace=wrap;html=1;fillColor=#fff2cc;strokeColor=#d6b656;" parent="1" vertex="1">
          <mxGeometry x="-5580" y="760" width="120" height="60" as="geometry"/>
        </mxCell>
        <mxCell id="Bwh5HaH0jvtO-nfgoD8l-41" style="edgeStyle=orthogonalEdgeStyle;rounded=0;jumpStyle=none;jumpSize=14;orthogonalLoop=1;jettySize=auto;html=1;exitX=1;exitY=0.5;exitDx=0;exitDy=0;entryX=0.5;entryY=0;entryDx=0;entryDy=0;startArrow=diamond;startFill=1;endArrow=classic;endFill=1;" parent="1" source="SLmvfLO-0fDUO9Z2AGR4-62" target="Bwh5HaH0jvtO-nfgoD8l-34" edge="1">
          <mxGeometry relative="1" as="geometry">
            <Array as="points">
              <mxPoint x="-5620" y="790"/>
              <mxPoint x="-5620" y="960"/>
              <mxPoint x="-7106" y="960"/>
            </Array>
          </mxGeometry>
        </mxCell>
        <mxCell id="Bwh5HaH0jvtO-nfgoD8l-43" style="edgeStyle=orthogonalEdgeStyle;rounded=0;jumpStyle=none;jumpSize=14;orthogonalLoop=1;jettySize=auto;html=1;exitX=1;exitY=0.5;exitDx=0;exitDy=0;startArrow=none;startFill=0;endArrow=classic;endFill=1;" parent="1" source="SLmvfLO-0fDUO9Z2AGR4-62" target="Bwh5HaH0jvtO-nfgoD8l-32" edge="1">
          <mxGeometry relative="1" as="geometry">
            <Array as="points">
              <mxPoint x="-5620" y="790"/>
              <mxPoint x="-5620" y="960"/>
              <mxPoint x="-6510" y="960"/>
            </Array>
          </mxGeometry>
        </mxCell>
        <mxCell id="Bwh5HaH0jvtO-nfgoD8l-46" style="edgeStyle=orthogonalEdgeStyle;rounded=0;jumpStyle=none;jumpSize=14;orthogonalLoop=1;jettySize=auto;html=1;exitX=1;exitY=0.5;exitDx=0;exitDy=0;entryX=0.5;entryY=0;entryDx=0;entryDy=0;startArrow=none;startFill=0;endArrow=classic;endFill=1;" parent="1" source="SLmvfLO-0fDUO9Z2AGR4-62" target="Bwh5HaH0jvtO-nfgoD8l-29" edge="1">
          <mxGeometry relative="1" as="geometry">
            <Array as="points">
              <mxPoint x="-5620" y="790"/>
              <mxPoint x="-5620" y="960"/>
              <mxPoint x="-5330" y="960"/>
            </Array>
          </mxGeometry>
        </mxCell>
        <mxCell id="SLmvfLO-0fDUO9Z2AGR4-62" value="12 KRONOS" style="rounded=0;whiteSpace=wrap;html=1;fillColor=#d5e8d4;strokeColor=#82b366;" parent="1" vertex="1">
          <mxGeometry x="-5790" y="760" width="120" height="60" as="geometry"/>
        </mxCell>
        <mxCell id="Bwh5HaH0jvtO-nfgoD8l-90" style="edgeStyle=orthogonalEdgeStyle;rounded=0;jumpStyle=arc;jumpSize=14;orthogonalLoop=1;jettySize=auto;html=1;exitX=0;exitY=0.5;exitDx=0;exitDy=0;startArrow=none;startFill=0;endArrow=classic;endFill=1;" parent="1" source="SLmvfLO-0fDUO9Z2AGR4-64" target="Bwh5HaH0jvtO-nfgoD8l-84" edge="1">
          <mxGeometry relative="1" as="geometry">
            <Array as="points">
              <mxPoint x="-4910" y="790"/>
              <mxPoint x="-4910" y="1270"/>
              <mxPoint x="-4700" y="1270"/>
              <mxPoint x="-4700" y="1320"/>
              <mxPoint x="-4840" y="1320"/>
            </Array>
          </mxGeometry>
        </mxCell>
        <mxCell id="Bwh5HaH0jvtO-nfgoD8l-91" style="edgeStyle=orthogonalEdgeStyle;rounded=0;jumpStyle=none;jumpSize=14;orthogonalLoop=1;jettySize=auto;html=1;exitX=0;exitY=0.5;exitDx=0;exitDy=0;startArrow=none;startFill=0;endArrow=classic;endFill=1;entryX=0.5;entryY=0;entryDx=0;entryDy=0;" parent="1" source="SLmvfLO-0fDUO9Z2AGR4-64" target="Bwh5HaH0jvtO-nfgoD8l-85" edge="1">
          <mxGeometry relative="1" as="geometry">
            <Array as="points">
              <mxPoint x="-4910" y="790"/>
              <mxPoint x="-4910" y="1270"/>
              <mxPoint x="-4700" y="1270"/>
              <mxPoint x="-4700" y="1320"/>
              <mxPoint x="-4690" y="1320"/>
            </Array>
          </mxGeometry>
        </mxCell>
        <mxCell id="Bwh5HaH0jvtO-nfgoD8l-92" style="edgeStyle=orthogonalEdgeStyle;rounded=0;jumpStyle=none;jumpSize=14;orthogonalLoop=1;jettySize=auto;html=1;startArrow=none;startFill=0;endArrow=classic;endFill=1;" parent="1" target="Bwh5HaH0jvtO-nfgoD8l-86" edge="1">
          <mxGeometry relative="1" as="geometry">
            <mxPoint x="-4830" y="1270" as="sourcePoint"/>
            <Array as="points">
              <mxPoint x="-4700" y="1270"/>
              <mxPoint x="-4700" y="1320"/>
              <mxPoint x="-4540" y="1320"/>
            </Array>
          </mxGeometry>
        </mxCell>
        <mxCell id="Bwh5HaH0jvtO-nfgoD8l-93" style="edgeStyle=orthogonalEdgeStyle;rounded=0;jumpStyle=none;jumpSize=14;orthogonalLoop=1;jettySize=auto;html=1;exitX=0;exitY=0.5;exitDx=0;exitDy=0;startArrow=none;startFill=0;endArrow=classic;endFill=1;" parent="1" source="SLmvfLO-0fDUO9Z2AGR4-64" target="Bwh5HaH0jvtO-nfgoD8l-87" edge="1">
          <mxGeometry relative="1" as="geometry">
            <Array as="points">
              <mxPoint x="-4910" y="790"/>
              <mxPoint x="-4910" y="1270"/>
              <mxPoint x="-4200" y="1270"/>
              <mxPoint x="-4200" y="1320"/>
              <mxPoint x="-4370" y="1320"/>
            </Array>
          </mxGeometry>
        </mxCell>
        <mxCell id="SLmvfLO-0fDUO9Z2AGR4-64" value="8 THEMIS&lt;br&gt;(justice and wise counsel)" style="rounded=0;whiteSpace=wrap;html=1;fillColor=#fff2cc;strokeColor=#d6b656;" parent="1" vertex="1">
          <mxGeometry x="-4810" y="760" width="120" height="60" as="geometry"/>
        </mxCell>
        <mxCell id="Bwh5HaH0jvtO-nfgoD8l-58" style="edgeStyle=orthogonalEdgeStyle;rounded=0;jumpStyle=arc;jumpSize=14;orthogonalLoop=1;jettySize=auto;html=1;startArrow=none;startFill=0;endArrow=classic;endFill=1;exitX=0;exitY=0.5;exitDx=0;exitDy=0;" parent="1" source="SLmvfLO-0fDUO9Z2AGR4-65" target="Bwh5HaH0jvtO-nfgoD8l-57" edge="1">
          <mxGeometry relative="1" as="geometry">
            <mxPoint x="-5180" y="830" as="sourcePoint"/>
            <Array as="points">
              <mxPoint x="-5230" y="790"/>
              <mxPoint x="-5230" y="1272"/>
              <mxPoint x="-5739" y="1272"/>
              <mxPoint x="-5739" y="1320"/>
              <mxPoint x="-6467" y="1320"/>
            </Array>
          </mxGeometry>
        </mxCell>
        <mxCell id="Bwh5HaH0jvtO-nfgoD8l-59" style="edgeStyle=orthogonalEdgeStyle;rounded=0;jumpStyle=none;jumpSize=14;orthogonalLoop=1;jettySize=auto;html=1;entryX=0.5;entryY=0;entryDx=0;entryDy=0;startArrow=none;startFill=0;endArrow=classic;endFill=1;exitX=0;exitY=0.5;exitDx=0;exitDy=0;" parent="1" source="SLmvfLO-0fDUO9Z2AGR4-65" target="Bwh5HaH0jvtO-nfgoD8l-54" edge="1">
          <mxGeometry relative="1" as="geometry">
            <mxPoint x="-5320" y="830" as="sourcePoint"/>
            <Array as="points">
              <mxPoint x="-5230" y="790"/>
              <mxPoint x="-5230" y="1272"/>
              <mxPoint x="-5739" y="1272"/>
              <mxPoint x="-5739" y="1320"/>
              <mxPoint x="-5335" y="1320"/>
              <mxPoint x="-5335" y="1358"/>
            </Array>
          </mxGeometry>
        </mxCell>
        <mxCell id="SLmvfLO-0fDUO9Z2AGR4-65" value="3 MNEMOSYNE&lt;br&gt;(memory)" style="rounded=0;whiteSpace=wrap;html=1;fillColor=#fff2cc;strokeColor=#d6b656;" parent="1" vertex="1">
          <mxGeometry x="-5180" y="760" width="120" height="60" as="geometry"/>
        </mxCell>
        <mxCell id="SLmvfLO-0fDUO9Z2AGR4-113" style="edgeStyle=orthogonalEdgeStyle;rounded=0;orthogonalLoop=1;jettySize=auto;html=1;exitX=1;exitY=0.5;exitDx=0;exitDy=0;startArrow=diamond;startFill=1;endArrow=classic;endFill=1;entryX=0.5;entryY=0;entryDx=0;entryDy=0;" parent="1" source="SLmvfLO-0fDUO9Z2AGR4-66" target="SLmvfLO-0fDUO9Z2AGR4-111" edge="1">
          <mxGeometry relative="1" as="geometry">
            <Array as="points">
              <mxPoint x="-2870" y="790"/>
              <mxPoint x="-2870" y="960"/>
              <mxPoint x="-3050" y="960"/>
              <mxPoint x="-3050" y="990"/>
              <mxPoint x="-2590" y="990"/>
            </Array>
          </mxGeometry>
        </mxCell>
        <mxCell id="SLmvfLO-0fDUO9Z2AGR4-114" style="edgeStyle=orthogonalEdgeStyle;rounded=0;orthogonalLoop=1;jettySize=auto;html=1;exitX=1;exitY=0.5;exitDx=0;exitDy=0;entryX=0.5;entryY=0;entryDx=0;entryDy=0;startArrow=none;startFill=0;endArrow=classic;endFill=1;" parent="1" source="SLmvfLO-0fDUO9Z2AGR4-66" target="SLmvfLO-0fDUO9Z2AGR4-110" edge="1">
          <mxGeometry relative="1" as="geometry">
            <Array as="points">
              <mxPoint x="-2870" y="790"/>
              <mxPoint x="-2870" y="960"/>
              <mxPoint x="-3050" y="960"/>
              <mxPoint x="-3050" y="990"/>
              <mxPoint x="-3200" y="990"/>
            </Array>
          </mxGeometry>
        </mxCell>
        <mxCell id="SLmvfLO-0fDUO9Z2AGR4-115" style="edgeStyle=orthogonalEdgeStyle;rounded=0;orthogonalLoop=1;jettySize=auto;html=1;exitX=1;exitY=0.5;exitDx=0;exitDy=0;startArrow=none;startFill=0;endArrow=classic;endFill=1;entryX=0.5;entryY=0;entryDx=0;entryDy=0;" parent="1" source="SLmvfLO-0fDUO9Z2AGR4-66" target="SLmvfLO-0fDUO9Z2AGR4-109" edge="1">
          <mxGeometry relative="1" as="geometry">
            <Array as="points">
              <mxPoint x="-2870" y="790"/>
              <mxPoint x="-2870" y="960"/>
              <mxPoint x="-3050" y="960"/>
              <mxPoint x="-3050" y="990"/>
              <mxPoint x="-3060" y="990"/>
            </Array>
          </mxGeometry>
        </mxCell>
        <mxCell id="SLmvfLO-0fDUO9Z2AGR4-116" style="edgeStyle=orthogonalEdgeStyle;rounded=0;orthogonalLoop=1;jettySize=auto;html=1;exitX=0;exitY=0.5;exitDx=0;exitDy=0;startArrow=none;startFill=0;endArrow=classic;endFill=1;entryX=0.5;entryY=0;entryDx=0;entryDy=0;" parent="1" source="SLmvfLO-0fDUO9Z2AGR4-108" target="SLmvfLO-0fDUO9Z2AGR4-106" edge="1">
          <mxGeometry relative="1" as="geometry">
            <Array as="points">
              <mxPoint x="-3500" y="1070"/>
              <mxPoint x="-3500" y="1320"/>
              <mxPoint x="-3400" y="1320"/>
            </Array>
          </mxGeometry>
        </mxCell>
        <mxCell id="vMH8rf_PuUaEWhDIgEK9-9" style="edgeStyle=orthogonalEdgeStyle;rounded=0;orthogonalLoop=1;jettySize=auto;html=1;exitX=0.5;exitY=1;exitDx=0;exitDy=0;entryX=0.75;entryY=0;entryDx=0;entryDy=0;dashed=1;" parent="1" source="SLmvfLO-0fDUO9Z2AGR4-66" target="Bwh5HaH0jvtO-nfgoD8l-166" edge="1">
          <mxGeometry relative="1" as="geometry">
            <Array as="points">
              <mxPoint x="-2980" y="1210"/>
              <mxPoint x="-6940" y="1210"/>
            </Array>
          </mxGeometry>
        </mxCell>
        <mxCell id="vMH8rf_PuUaEWhDIgEK9-31" style="edgeStyle=orthogonalEdgeStyle;rounded=0;jumpStyle=none;jumpSize=14;orthogonalLoop=1;jettySize=auto;html=1;startArrow=none;startFill=0;endArrow=classic;endFill=1;" parent="1" target="vMH8rf_PuUaEWhDIgEK9-30" edge="1">
          <mxGeometry relative="1" as="geometry">
            <mxPoint x="-2840" y="990" as="sourcePoint"/>
          </mxGeometry>
        </mxCell>
        <mxCell id="SLmvfLO-0fDUO9Z2AGR4-66" value="2 TETHYS" style="rounded=0;whiteSpace=wrap;html=1;fillColor=#fff2cc;strokeColor=#d6b656;" parent="1" vertex="1">
          <mxGeometry x="-3040" y="760" width="120" height="60" as="geometry"/>
        </mxCell>
        <mxCell id="SLmvfLO-0fDUO9Z2AGR4-130" style="edgeStyle=orthogonalEdgeStyle;rounded=0;orthogonalLoop=1;jettySize=auto;html=1;exitX=0;exitY=0.5;exitDx=0;exitDy=0;startArrow=diamond;startFill=1;endArrow=classic;endFill=1;" parent="1" source="SLmvfLO-0fDUO9Z2AGR4-67" target="SLmvfLO-0fDUO9Z2AGR4-125" edge="1">
          <mxGeometry relative="1" as="geometry">
            <Array as="points">
              <mxPoint x="-1660" y="790"/>
              <mxPoint x="-1660" y="960"/>
              <mxPoint x="-1560" y="960"/>
            </Array>
          </mxGeometry>
        </mxCell>
        <mxCell id="SLmvfLO-0fDUO9Z2AGR4-135" style="edgeStyle=orthogonalEdgeStyle;rounded=0;orthogonalLoop=1;jettySize=auto;html=1;exitX=0;exitY=0.5;exitDx=0;exitDy=0;startArrow=diamond;startFill=1;endArrow=diamond;endFill=1;entryX=1;entryY=0.5;entryDx=0;entryDy=0;" parent="1" source="SLmvfLO-0fDUO9Z2AGR4-68" target="SLmvfLO-0fDUO9Z2AGR4-69" edge="1">
          <mxGeometry relative="1" as="geometry">
            <mxPoint x="-2060" y="960" as="targetPoint"/>
          </mxGeometry>
        </mxCell>
        <mxCell id="SLmvfLO-0fDUO9Z2AGR4-68" value="7 COEUS" style="rounded=0;whiteSpace=wrap;html=1;fillColor=#d5e8d4;strokeColor=#82b366;" parent="1" vertex="1">
          <mxGeometry x="-2020" y="760" width="120" height="60" as="geometry"/>
        </mxCell>
        <mxCell id="vMH8rf_PuUaEWhDIgEK9-14" style="edgeStyle=orthogonalEdgeStyle;rounded=0;jumpStyle=arc;jumpSize=14;orthogonalLoop=1;jettySize=auto;html=1;exitX=1;exitY=0.5;exitDx=0;exitDy=0;entryX=0.5;entryY=0;entryDx=0;entryDy=0;startArrow=none;startFill=0;endArrow=classic;endFill=1;" parent="1" source="SLmvfLO-0fDUO9Z2AGR4-69" target="vMH8rf_PuUaEWhDIgEK9-13" edge="1">
          <mxGeometry relative="1" as="geometry"/>
        </mxCell>
        <mxCell id="SLmvfLO-0fDUO9Z2AGR4-69" value="6 PHOEBE&lt;br&gt;(gift of prophecy)" style="rounded=0;whiteSpace=wrap;html=1;fillColor=#fff2cc;strokeColor=#d6b656;" parent="1" vertex="1">
          <mxGeometry x="-2220" y="760" width="120" height="60" as="geometry"/>
        </mxCell>
        <mxCell id="SLmvfLO-0fDUO9Z2AGR4-128" style="edgeStyle=orthogonalEdgeStyle;rounded=0;orthogonalLoop=1;jettySize=auto;html=1;exitX=1;exitY=0.5;exitDx=0;exitDy=0;entryX=0.5;entryY=0;entryDx=0;entryDy=0;startArrow=diamond;startFill=1;endArrow=classic;endFill=1;" parent="1" source="SLmvfLO-0fDUO9Z2AGR4-70" target="SLmvfLO-0fDUO9Z2AGR4-127" edge="1">
          <mxGeometry relative="1" as="geometry">
            <Array as="points">
              <mxPoint x="-1660" y="790"/>
              <mxPoint x="-1660" y="960"/>
              <mxPoint x="-1840" y="960"/>
            </Array>
          </mxGeometry>
        </mxCell>
        <mxCell id="SLmvfLO-0fDUO9Z2AGR4-129" style="edgeStyle=orthogonalEdgeStyle;rounded=0;orthogonalLoop=1;jettySize=auto;html=1;exitX=1;exitY=0.5;exitDx=0;exitDy=0;startArrow=none;startFill=0;endArrow=classic;endFill=1;" parent="1" source="SLmvfLO-0fDUO9Z2AGR4-67" target="SLmvfLO-0fDUO9Z2AGR4-126" edge="1">
          <mxGeometry relative="1" as="geometry">
            <Array as="points">
              <mxPoint x="-1660" y="960"/>
              <mxPoint x="-1700" y="960"/>
            </Array>
          </mxGeometry>
        </mxCell>
        <mxCell id="SLmvfLO-0fDUO9Z2AGR4-103" style="edgeStyle=orthogonalEdgeStyle;rounded=0;orthogonalLoop=1;jettySize=auto;html=1;exitX=1;exitY=0.5;exitDx=0;exitDy=0;startArrow=diamond;startFill=1;endArrow=none;endFill=0;" parent="1" source="SLmvfLO-0fDUO9Z2AGR4-71" edge="1">
          <mxGeometry relative="1" as="geometry">
            <mxPoint x="-6020" y="870" as="targetPoint"/>
            <Array as="points">
              <mxPoint x="-6020" y="790"/>
            </Array>
          </mxGeometry>
        </mxCell>
        <mxCell id="SLmvfLO-0fDUO9Z2AGR4-71" value="EURYBIA&lt;br&gt;(flint hearted)" style="rounded=0;whiteSpace=wrap;html=1;fillColor=#fff2cc;strokeColor=#d6b656;" parent="1" vertex="1">
          <mxGeometry x="-6200" y="760" width="120" height="60" as="geometry"/>
        </mxCell>
        <mxCell id="SLmvfLO-0fDUO9Z2AGR4-72" value="1 BRONTES&lt;br&gt;(thunder)" style="rounded=0;whiteSpace=wrap;html=1;" parent="1" vertex="1">
          <mxGeometry x="-670" y="760" width="120" height="60" as="geometry"/>
        </mxCell>
        <mxCell id="SLmvfLO-0fDUO9Z2AGR4-73" value="2 STEROPES&lt;br&gt;(lightning)" style="rounded=0;whiteSpace=wrap;html=1;" parent="1" vertex="1">
          <mxGeometry x="-820" y="760" width="120" height="60" as="geometry"/>
        </mxCell>
        <mxCell id="SLmvfLO-0fDUO9Z2AGR4-74" value="3 ARGES&lt;br&gt;(brightness)" style="rounded=0;whiteSpace=wrap;html=1;" parent="1" vertex="1">
          <mxGeometry x="-970" y="760" width="120" height="60" as="geometry"/>
        </mxCell>
        <mxCell id="SLmvfLO-0fDUO9Z2AGR4-75" value="COTTUS&lt;br&gt;(the furious)" style="rounded=0;whiteSpace=wrap;html=1;" parent="1" vertex="1">
          <mxGeometry x="-1120" y="760" width="120" height="60" as="geometry"/>
        </mxCell>
        <mxCell id="SLmvfLO-0fDUO9Z2AGR4-76" value="GYGES&lt;br&gt;(the long limbed)" style="rounded=0;whiteSpace=wrap;html=1;" parent="1" vertex="1">
          <mxGeometry x="-1270" y="760" width="120" height="60" as="geometry"/>
        </mxCell>
        <mxCell id="SLmvfLO-0fDUO9Z2AGR4-77" value="AEGAEON / BRIAREOS&lt;br&gt;(the sea goat / the vigorous)" style="rounded=0;whiteSpace=wrap;html=1;" parent="1" vertex="1">
          <mxGeometry x="-1420" y="760" width="120" height="60" as="geometry"/>
        </mxCell>
        <mxCell id="SLmvfLO-0fDUO9Z2AGR4-96" value="HECATONCHIRES" style="text;html=1;strokeColor=none;fillColor=none;align=center;verticalAlign=middle;whiteSpace=wrap;rounded=0;" parent="1" vertex="1">
          <mxGeometry x="-1230" y="710" width="40" height="20" as="geometry"/>
        </mxCell>
        <mxCell id="SLmvfLO-0fDUO9Z2AGR4-97" value="CYCLOPES" style="text;html=1;strokeColor=none;fillColor=none;align=center;verticalAlign=middle;whiteSpace=wrap;rounded=0;" parent="1" vertex="1">
          <mxGeometry x="-670" y="710" width="40" height="20" as="geometry"/>
        </mxCell>
        <mxCell id="Bwh5HaH0jvtO-nfgoD8l-94" style="edgeStyle=orthogonalEdgeStyle;rounded=0;jumpStyle=none;jumpSize=14;orthogonalLoop=1;jettySize=auto;html=1;startArrow=none;startFill=0;endArrow=classic;endFill=1;entryX=0.5;entryY=0;entryDx=0;entryDy=0;" parent="1" target="Bwh5HaH0jvtO-nfgoD8l-88" edge="1">
          <mxGeometry relative="1" as="geometry">
            <mxPoint x="-4330" y="1270" as="sourcePoint"/>
            <Array as="points">
              <mxPoint x="-4200" y="1270"/>
              <mxPoint x="-4200" y="1320"/>
              <mxPoint x="-4220" y="1320"/>
            </Array>
          </mxGeometry>
        </mxCell>
        <mxCell id="Bwh5HaH0jvtO-nfgoD8l-95" style="edgeStyle=orthogonalEdgeStyle;rounded=0;jumpStyle=none;jumpSize=14;orthogonalLoop=1;jettySize=auto;html=1;startArrow=none;startFill=0;endArrow=classic;endFill=1;" parent="1" target="Bwh5HaH0jvtO-nfgoD8l-89" edge="1">
          <mxGeometry relative="1" as="geometry">
            <mxPoint x="-4250" y="1270" as="sourcePoint"/>
            <Array as="points">
              <mxPoint x="-4200" y="1270"/>
              <mxPoint x="-4200" y="1320"/>
              <mxPoint x="-4075" y="1320"/>
            </Array>
          </mxGeometry>
        </mxCell>
        <mxCell id="SLmvfLO-0fDUO9Z2AGR4-104" value="NILUS&lt;br&gt;(nile)" style="rounded=0;whiteSpace=wrap;html=1;fillColor=#d5e8d4;strokeColor=#82b366;" parent="1" vertex="1">
          <mxGeometry x="-4060" y="1040" width="120" height="60" as="geometry"/>
        </mxCell>
        <mxCell id="Bwh5HaH0jvtO-nfgoD8l-150" style="edgeStyle=orthogonalEdgeStyle;rounded=0;jumpStyle=arc;jumpSize=14;orthogonalLoop=1;jettySize=auto;html=1;exitX=0;exitY=0.5;exitDx=0;exitDy=0;startArrow=none;startFill=0;endArrow=classic;endFill=1;" parent="1" source="SLmvfLO-0fDUO9Z2AGR4-106" target="Bwh5HaH0jvtO-nfgoD8l-149" edge="1">
          <mxGeometry relative="1" as="geometry"/>
        </mxCell>
        <mxCell id="SLmvfLO-0fDUO9Z2AGR4-106" value="AMPHITRITE" style="rounded=0;whiteSpace=wrap;html=1;fillColor=#fff2cc;strokeColor=#d6b656;" parent="1" vertex="1">
          <mxGeometry x="-3460" y="1360" width="120" height="60" as="geometry"/>
        </mxCell>
        <mxCell id="SLmvfLO-0fDUO9Z2AGR4-107" value="STYX" style="rounded=0;whiteSpace=wrap;html=1;fillColor=#fff2cc;strokeColor=#d6b656;" parent="1" vertex="1">
          <mxGeometry x="-2790" y="1042" width="120" height="60" as="geometry"/>
        </mxCell>
        <mxCell id="Bwh5HaH0jvtO-nfgoD8l-173" style="edgeStyle=orthogonalEdgeStyle;rounded=0;jumpStyle=arc;jumpSize=14;orthogonalLoop=1;jettySize=auto;html=1;entryX=0.5;entryY=0;entryDx=0;entryDy=0;startArrow=none;startFill=0;endArrow=classic;endFill=1;" parent="1" target="Bwh5HaH0jvtO-nfgoD8l-172" edge="1">
          <mxGeometry relative="1" as="geometry">
            <mxPoint x="-3470" y="1320" as="sourcePoint"/>
          </mxGeometry>
        </mxCell>
        <mxCell id="SLmvfLO-0fDUO9Z2AGR4-108" value="DORIS" style="rounded=0;whiteSpace=wrap;html=1;fillColor=#fff2cc;strokeColor=#d6b656;" parent="1" vertex="1">
          <mxGeometry x="-3450" y="1040" width="120" height="60" as="geometry"/>
        </mxCell>
        <mxCell id="SLmvfLO-0fDUO9Z2AGR4-109" value="CALYPSO" style="rounded=0;whiteSpace=wrap;html=1;fillColor=#fff2cc;strokeColor=#d6b656;" parent="1" vertex="1">
          <mxGeometry x="-3120" y="1038" width="120" height="60" as="geometry"/>
        </mxCell>
        <mxCell id="vMH8rf_PuUaEWhDIgEK9-15" style="edgeStyle=orthogonalEdgeStyle;rounded=0;jumpStyle=arc;jumpSize=14;orthogonalLoop=1;jettySize=auto;html=1;exitX=0;exitY=0.5;exitDx=0;exitDy=0;entryX=0.25;entryY=0;entryDx=0;entryDy=0;startArrow=diamond;startFill=1;endArrow=diamond;endFill=1;" parent="1" source="SLmvfLO-0fDUO9Z2AGR4-110" target="Bwh5HaH0jvtO-nfgoD8l-34" edge="1">
          <mxGeometry relative="1" as="geometry">
            <Array as="points">
              <mxPoint x="-3300" y="1070"/>
              <mxPoint x="-3300" y="940"/>
              <mxPoint x="-7136" y="940"/>
            </Array>
          </mxGeometry>
        </mxCell>
        <mxCell id="vMH8rf_PuUaEWhDIgEK9-18" style="edgeStyle=orthogonalEdgeStyle;rounded=0;jumpStyle=arc;jumpSize=14;orthogonalLoop=1;jettySize=auto;html=1;exitX=0;exitY=0.5;exitDx=0;exitDy=0;startArrow=none;startFill=0;endArrow=classic;endFill=1;" parent="1" source="SLmvfLO-0fDUO9Z2AGR4-110" target="vMH8rf_PuUaEWhDIgEK9-17" edge="1">
          <mxGeometry relative="1" as="geometry"/>
        </mxCell>
        <mxCell id="SLmvfLO-0fDUO9Z2AGR4-110" value="METIS&lt;br&gt;(clever and wise)" style="rounded=0;whiteSpace=wrap;html=1;fillColor=#fff2cc;strokeColor=#d6b656;" parent="1" vertex="1">
          <mxGeometry x="-3260" y="1040" width="120" height="60" as="geometry"/>
        </mxCell>
        <mxCell id="SLmvfLO-0fDUO9Z2AGR4-140" style="edgeStyle=orthogonalEdgeStyle;rounded=0;orthogonalLoop=1;jettySize=auto;html=1;exitX=1;exitY=0.5;exitDx=0;exitDy=0;entryX=0.5;entryY=0;entryDx=0;entryDy=0;startArrow=diamond;startFill=1;endArrow=classic;endFill=1;" parent="1" source="SLmvfLO-0fDUO9Z2AGR4-111" target="SLmvfLO-0fDUO9Z2AGR4-137" edge="1">
          <mxGeometry relative="1" as="geometry">
            <Array as="points">
              <mxPoint x="-2510" y="1070"/>
              <mxPoint x="-2510" y="1320"/>
              <mxPoint x="-2550" y="1320"/>
            </Array>
          </mxGeometry>
        </mxCell>
        <mxCell id="SLmvfLO-0fDUO9Z2AGR4-143" style="edgeStyle=orthogonalEdgeStyle;rounded=0;orthogonalLoop=1;jettySize=auto;html=1;exitX=1;exitY=0.5;exitDx=0;exitDy=0;startArrow=diamond;startFill=1;endArrow=classic;endFill=1;entryX=0.5;entryY=0;entryDx=0;entryDy=0;" parent="1" source="SLmvfLO-0fDUO9Z2AGR4-111" target="SLmvfLO-0fDUO9Z2AGR4-138" edge="1">
          <mxGeometry relative="1" as="geometry">
            <Array as="points">
              <mxPoint x="-2510" y="1070"/>
              <mxPoint x="-2510" y="1320"/>
              <mxPoint x="-2390" y="1320"/>
            </Array>
            <mxPoint x="-2080" y="1280" as="targetPoint"/>
          </mxGeometry>
        </mxCell>
        <mxCell id="SLmvfLO-0fDUO9Z2AGR4-111" value="CLYMENE" style="rounded=0;whiteSpace=wrap;html=1;fillColor=#fff2cc;strokeColor=#d6b656;" parent="1" vertex="1">
          <mxGeometry x="-2650" y="1040" width="120" height="60" as="geometry"/>
        </mxCell>
        <mxCell id="Bwh5HaH0jvtO-nfgoD8l-72" style="edgeStyle=orthogonalEdgeStyle;rounded=0;jumpStyle=none;jumpSize=14;orthogonalLoop=1;jettySize=auto;html=1;entryX=0.5;entryY=0;entryDx=0;entryDy=0;startArrow=none;startFill=0;endArrow=classic;endFill=1;" parent="1" target="Bwh5HaH0jvtO-nfgoD8l-71" edge="1">
          <mxGeometry relative="1" as="geometry">
            <mxPoint x="-3360" y="990" as="sourcePoint"/>
          </mxGeometry>
        </mxCell>
        <mxCell id="Bwh5HaH0jvtO-nfgoD8l-146" style="edgeStyle=orthogonalEdgeStyle;rounded=0;jumpStyle=none;jumpSize=14;orthogonalLoop=1;jettySize=auto;html=1;exitX=1;exitY=0.5;exitDx=0;exitDy=0;entryX=0;entryY=0.5;entryDx=0;entryDy=0;startArrow=diamond;startFill=1;endArrow=diamond;endFill=1;" parent="1" source="SLmvfLO-0fDUO9Z2AGR4-112" target="SLmvfLO-0fDUO9Z2AGR4-108" edge="1">
          <mxGeometry relative="1" as="geometry"/>
        </mxCell>
        <mxCell id="SLmvfLO-0fDUO9Z2AGR4-112" value="NEREUS&lt;br&gt;(sea god)" style="rounded=0;whiteSpace=wrap;html=1;fillColor=#d5e8d4;strokeColor=#82b366;" parent="1" vertex="1">
          <mxGeometry x="-3670" y="1040" width="120" height="60" as="geometry"/>
        </mxCell>
        <mxCell id="SLmvfLO-0fDUO9Z2AGR4-121" value="OCEANIDES (300)" style="text;html=1;strokeColor=none;fillColor=none;align=center;verticalAlign=middle;whiteSpace=wrap;rounded=0;" parent="1" vertex="1">
          <mxGeometry x="-3050" y="970" width="120" height="20" as="geometry"/>
        </mxCell>
        <mxCell id="SLmvfLO-0fDUO9Z2AGR4-122" value="RIVERS" style="text;html=1;strokeColor=none;fillColor=none;align=center;verticalAlign=middle;whiteSpace=wrap;rounded=0;" parent="1" vertex="1">
          <mxGeometry x="-3980" y="970" width="40" height="20" as="geometry"/>
        </mxCell>
        <mxCell id="SLmvfLO-0fDUO9Z2AGR4-125" value="EOS&lt;br&gt;(dawn)" style="rounded=0;whiteSpace=wrap;html=1;" parent="1" vertex="1">
          <mxGeometry x="-1620" y="1040" width="120" height="60" as="geometry"/>
        </mxCell>
        <mxCell id="SLmvfLO-0fDUO9Z2AGR4-126" value="SELENE&lt;br&gt;(moon)" style="rounded=0;whiteSpace=wrap;html=1;" parent="1" vertex="1">
          <mxGeometry x="-1760" y="1040" width="120" height="60" as="geometry"/>
        </mxCell>
        <mxCell id="SLmvfLO-0fDUO9Z2AGR4-127" value="HELIOS&lt;br&gt;(sun)" style="rounded=0;whiteSpace=wrap;html=1;" parent="1" vertex="1">
          <mxGeometry x="-1900" y="1040" width="120" height="60" as="geometry"/>
        </mxCell>
        <mxCell id="SLmvfLO-0fDUO9Z2AGR4-133" value="NEREIDES" style="text;html=1;strokeColor=none;fillColor=none;align=center;verticalAlign=middle;whiteSpace=wrap;rounded=0;" parent="1" vertex="1">
          <mxGeometry x="-3450" y="1300" width="40" height="20" as="geometry"/>
        </mxCell>
        <mxCell id="vMH8rf_PuUaEWhDIgEK9-40" style="edgeStyle=orthogonalEdgeStyle;rounded=0;jumpStyle=none;jumpSize=14;orthogonalLoop=1;jettySize=auto;html=1;exitX=0;exitY=0.5;exitDx=0;exitDy=0;startArrow=none;startFill=0;endArrow=classic;endFill=1;" parent="1" source="SLmvfLO-0fDUO9Z2AGR4-136" target="vMH8rf_PuUaEWhDIgEK9-33" edge="1">
          <mxGeometry relative="1" as="geometry">
            <Array as="points">
              <mxPoint x="-2800" y="1390"/>
              <mxPoint x="-2800" y="1560"/>
              <mxPoint x="-3080" y="1560"/>
              <mxPoint x="-3080" y="1600"/>
              <mxPoint x="-3150" y="1600"/>
            </Array>
          </mxGeometry>
        </mxCell>
        <mxCell id="vMH8rf_PuUaEWhDIgEK9-41" style="edgeStyle=orthogonalEdgeStyle;rounded=0;jumpStyle=none;jumpSize=14;orthogonalLoop=1;jettySize=auto;html=1;startArrow=none;startFill=0;endArrow=classic;endFill=1;" parent="1" target="vMH8rf_PuUaEWhDIgEK9-34" edge="1">
          <mxGeometry relative="1" as="geometry">
            <mxPoint x="-3080" y="1600" as="sourcePoint"/>
          </mxGeometry>
        </mxCell>
        <mxCell id="vMH8rf_PuUaEWhDIgEK9-42" style="edgeStyle=orthogonalEdgeStyle;rounded=0;jumpStyle=none;jumpSize=14;orthogonalLoop=1;jettySize=auto;html=1;startArrow=none;startFill=0;endArrow=classic;endFill=1;" parent="1" target="vMH8rf_PuUaEWhDIgEK9-35" edge="1">
          <mxGeometry relative="1" as="geometry">
            <mxPoint x="-3000" y="1600" as="sourcePoint"/>
          </mxGeometry>
        </mxCell>
        <mxCell id="vMH8rf_PuUaEWhDIgEK9-44" style="edgeStyle=orthogonalEdgeStyle;rounded=0;jumpStyle=none;jumpSize=14;orthogonalLoop=1;jettySize=auto;html=1;startArrow=none;startFill=0;endArrow=classic;endFill=1;" parent="1" target="vMH8rf_PuUaEWhDIgEK9-36" edge="1">
          <mxGeometry relative="1" as="geometry">
            <mxPoint x="-2880" y="1600" as="sourcePoint"/>
          </mxGeometry>
        </mxCell>
        <mxCell id="vMH8rf_PuUaEWhDIgEK9-45" style="edgeStyle=orthogonalEdgeStyle;rounded=0;jumpStyle=none;jumpSize=14;orthogonalLoop=1;jettySize=auto;html=1;startArrow=none;startFill=0;endArrow=classic;endFill=1;" parent="1" target="vMH8rf_PuUaEWhDIgEK9-37" edge="1">
          <mxGeometry relative="1" as="geometry">
            <mxPoint x="-2690" y="1600" as="sourcePoint"/>
          </mxGeometry>
        </mxCell>
        <mxCell id="vMH8rf_PuUaEWhDIgEK9-46" style="edgeStyle=orthogonalEdgeStyle;rounded=0;jumpStyle=none;jumpSize=14;orthogonalLoop=1;jettySize=auto;html=1;entryX=0.5;entryY=0;entryDx=0;entryDy=0;startArrow=none;startFill=0;endArrow=classic;endFill=1;" parent="1" target="vMH8rf_PuUaEWhDIgEK9-38" edge="1">
          <mxGeometry relative="1" as="geometry">
            <mxPoint x="-2570" y="1600" as="sourcePoint"/>
          </mxGeometry>
        </mxCell>
        <mxCell id="vMH8rf_PuUaEWhDIgEK9-47" style="edgeStyle=orthogonalEdgeStyle;rounded=0;jumpStyle=none;jumpSize=14;orthogonalLoop=1;jettySize=auto;html=1;entryX=0.5;entryY=0;entryDx=0;entryDy=0;startArrow=none;startFill=0;endArrow=classic;endFill=1;" parent="1" target="vMH8rf_PuUaEWhDIgEK9-39" edge="1">
          <mxGeometry relative="1" as="geometry">
            <mxPoint x="-2400" y="1600" as="sourcePoint"/>
          </mxGeometry>
        </mxCell>
        <mxCell id="SLmvfLO-0fDUO9Z2AGR4-136" value="ATLAS" style="rounded=0;whiteSpace=wrap;html=1;fillColor=#d5e8d4;strokeColor=#82b366;" parent="1" vertex="1">
          <mxGeometry x="-2770" y="1360" width="120" height="60" as="geometry"/>
        </mxCell>
        <mxCell id="SLmvfLO-0fDUO9Z2AGR4-137" value="EPIMETHEUS" style="rounded=0;whiteSpace=wrap;html=1;fillColor=#d5e8d4;strokeColor=#82b366;" parent="1" vertex="1">
          <mxGeometry x="-2610" y="1360" width="120" height="60" as="geometry"/>
        </mxCell>
        <mxCell id="SLmvfLO-0fDUO9Z2AGR4-138" value="PROMETHEUS" style="rounded=0;whiteSpace=wrap;html=1;fillColor=#d5e8d4;strokeColor=#82b366;" parent="1" vertex="1">
          <mxGeometry x="-2450" y="1360" width="120" height="60" as="geometry"/>
        </mxCell>
        <mxCell id="Bwh5HaH0jvtO-nfgoD8l-136" style="edgeStyle=orthogonalEdgeStyle;rounded=0;jumpStyle=none;jumpSize=14;orthogonalLoop=1;jettySize=auto;html=1;exitX=1;exitY=0.5;exitDx=0;exitDy=0;startArrow=diamond;startFill=1;endArrow=diamond;endFill=1;" parent="1" source="SLmvfLO-0fDUO9Z2AGR4-144" target="Bwh5HaH0jvtO-nfgoD8l-134" edge="1">
          <mxGeometry relative="1" as="geometry"/>
        </mxCell>
        <mxCell id="Bwh5HaH0jvtO-nfgoD8l-139" style="edgeStyle=elbowEdgeStyle;rounded=0;jumpStyle=none;jumpSize=14;orthogonalLoop=1;jettySize=auto;html=1;exitX=1;exitY=0.5;exitDx=0;exitDy=0;entryX=0.5;entryY=0;entryDx=0;entryDy=0;startArrow=none;startFill=0;endArrow=classic;endFill=1;" parent="1" source="SLmvfLO-0fDUO9Z2AGR4-144" target="Bwh5HaH0jvtO-nfgoD8l-138" edge="1">
          <mxGeometry relative="1" as="geometry">
            <Array as="points">
              <mxPoint x="590" y="680"/>
            </Array>
          </mxGeometry>
        </mxCell>
        <mxCell id="SLmvfLO-0fDUO9Z2AGR4-144" value="TYPHON" style="rounded=0;whiteSpace=wrap;html=1;fillColor=#d5e8d4;strokeColor=#82b366;" parent="1" vertex="1">
          <mxGeometry x="440" y="582" width="120" height="60" as="geometry"/>
        </mxCell>
        <mxCell id="Bwh5HaH0jvtO-nfgoD8l-1" value="MORPHEUS&lt;br&gt;(morphing)" style="rounded=0;whiteSpace=wrap;html=1;fillColor=#d5e8d4;strokeColor=#82b366;" parent="1" vertex="1">
          <mxGeometry x="1790" y="760" width="120" height="60" as="geometry"/>
        </mxCell>
        <mxCell id="Bwh5HaH0jvtO-nfgoD8l-6" value="ALECTO&lt;br&gt;(remorseless)" style="rounded=0;whiteSpace=wrap;html=1;" parent="1" vertex="1">
          <mxGeometry x="-520" y="760" width="120" height="60" as="geometry"/>
        </mxCell>
        <mxCell id="Bwh5HaH0jvtO-nfgoD8l-7" value="MEGAERA&lt;br&gt;(jealous rage)" style="rounded=0;whiteSpace=wrap;html=1;" parent="1" vertex="1">
          <mxGeometry x="-350" y="760" width="120" height="60" as="geometry"/>
        </mxCell>
        <mxCell id="Bwh5HaH0jvtO-nfgoD8l-8" value="TISIPHONE&lt;br&gt;(vengeance)" style="rounded=0;whiteSpace=wrap;html=1;" parent="1" vertex="1">
          <mxGeometry x="-140" y="760" width="120" height="60" as="geometry"/>
        </mxCell>
        <mxCell id="Bwh5HaH0jvtO-nfgoD8l-9" value="GIGANTES" style="text;html=1;strokeColor=none;fillColor=none;align=center;verticalAlign=middle;whiteSpace=wrap;rounded=0;" parent="1" vertex="1">
          <mxGeometry x="60" y="780" width="40" height="20" as="geometry"/>
        </mxCell>
        <mxCell id="Bwh5HaH0jvtO-nfgoD8l-10" value="MELIAE" style="text;html=1;strokeColor=none;fillColor=none;align=center;verticalAlign=middle;whiteSpace=wrap;rounded=0;" parent="1" vertex="1">
          <mxGeometry x="190" y="780" width="40" height="20" as="geometry"/>
        </mxCell>
        <mxCell id="Bwh5HaH0jvtO-nfgoD8l-16" value="ERINYES (furies)" style="text;html=1;strokeColor=none;fillColor=none;align=center;verticalAlign=middle;whiteSpace=wrap;rounded=0;" parent="1" vertex="1">
          <mxGeometry x="-320" y="720" width="120" height="20" as="geometry"/>
        </mxCell>
        <mxCell id="SLmvfLO-0fDUO9Z2AGR4-67" value="5 HYPERION" style="rounded=0;whiteSpace=wrap;html=1;fillColor=#d5e8d4;strokeColor=#82b366;" parent="1" vertex="1">
          <mxGeometry x="-1580" y="760" width="120" height="60" as="geometry"/>
        </mxCell>
        <mxCell id="SLmvfLO-0fDUO9Z2AGR4-70" value="4 THEIA" style="rounded=0;whiteSpace=wrap;html=1;fillColor=#fff2cc;strokeColor=#d6b656;" parent="1" vertex="1">
          <mxGeometry x="-1820" y="760" width="120" height="60" as="geometry"/>
        </mxCell>
        <mxCell id="SLmvfLO-0fDUO9Z2AGR4-63" value="10 IAPETUS" style="rounded=0;whiteSpace=wrap;html=1;fillColor=#d5e8d4;strokeColor=#82b366;" parent="1" vertex="1">
          <mxGeometry x="-2470" y="760" width="120" height="60" as="geometry"/>
        </mxCell>
        <mxCell id="Bwh5HaH0jvtO-nfgoD8l-26" value="TITANS" style="text;html=1;strokeColor=none;fillColor=none;align=center;verticalAlign=middle;whiteSpace=wrap;rounded=0;" parent="1" vertex="1">
          <mxGeometry x="-2350" y="710" width="40" height="20" as="geometry"/>
        </mxCell>
        <mxCell id="Bwh5HaH0jvtO-nfgoD8l-27" value="APHRODITE / VENUS&lt;br&gt;(beauty)" style="rounded=0;whiteSpace=wrap;html=1;fillColor=#fff2cc;strokeColor=#d6b656;" parent="1" vertex="1">
          <mxGeometry x="300" y="760" width="120" height="60" as="geometry"/>
        </mxCell>
        <mxCell id="Bwh5HaH0jvtO-nfgoD8l-62" style="edgeStyle=orthogonalEdgeStyle;rounded=0;jumpStyle=none;jumpSize=14;orthogonalLoop=1;jettySize=auto;html=1;entryX=0.5;entryY=0;entryDx=0;entryDy=0;startArrow=none;startFill=0;endArrow=classic;endFill=1;" parent="1" target="Bwh5HaH0jvtO-nfgoD8l-52" edge="1">
          <mxGeometry relative="1" as="geometry">
            <mxPoint x="-5720" y="1320" as="sourcePoint"/>
            <Array as="points">
              <mxPoint x="-5647" y="1320"/>
            </Array>
          </mxGeometry>
        </mxCell>
        <mxCell id="Bwh5HaH0jvtO-nfgoD8l-63" style="edgeStyle=orthogonalEdgeStyle;rounded=0;jumpStyle=none;jumpSize=14;orthogonalLoop=1;jettySize=auto;html=1;startArrow=none;startFill=0;endArrow=classic;endFill=1;" parent="1" target="Bwh5HaH0jvtO-nfgoD8l-55" edge="1">
          <mxGeometry relative="1" as="geometry">
            <mxPoint x="-5560" y="1320" as="sourcePoint"/>
            <Array as="points">
              <mxPoint x="-5177" y="1320"/>
            </Array>
          </mxGeometry>
        </mxCell>
        <mxCell id="Bwh5HaH0jvtO-nfgoD8l-64" style="edgeStyle=orthogonalEdgeStyle;rounded=0;jumpStyle=none;jumpSize=14;orthogonalLoop=1;jettySize=auto;html=1;startArrow=none;startFill=0;endArrow=classic;endFill=1;" parent="1" target="Bwh5HaH0jvtO-nfgoD8l-49" edge="1">
          <mxGeometry relative="1" as="geometry">
            <mxPoint x="-5987" y="1320" as="sourcePoint"/>
            <Array as="points">
              <mxPoint x="-6007" y="1320"/>
            </Array>
          </mxGeometry>
        </mxCell>
        <mxCell id="Bwh5HaH0jvtO-nfgoD8l-65" style="edgeStyle=orthogonalEdgeStyle;rounded=0;jumpStyle=none;jumpSize=14;orthogonalLoop=1;jettySize=auto;html=1;entryX=0.5;entryY=0;entryDx=0;entryDy=0;startArrow=none;startFill=0;endArrow=classic;endFill=1;" parent="1" target="Bwh5HaH0jvtO-nfgoD8l-67" edge="1">
          <mxGeometry relative="1" as="geometry">
            <mxPoint x="-5570" y="1320" as="sourcePoint"/>
            <Array as="points">
              <mxPoint x="-5017" y="1320"/>
            </Array>
          </mxGeometry>
        </mxCell>
        <mxCell id="Bwh5HaH0jvtO-nfgoD8l-66" style="edgeStyle=orthogonalEdgeStyle;rounded=0;jumpStyle=none;jumpSize=14;orthogonalLoop=1;jettySize=auto;html=1;entryX=0.5;entryY=0;entryDx=0;entryDy=0;startArrow=none;startFill=0;endArrow=classic;endFill=1;" parent="1" target="Bwh5HaH0jvtO-nfgoD8l-53" edge="1">
          <mxGeometry relative="1" as="geometry">
            <mxPoint x="-5880" y="1320" as="sourcePoint"/>
            <Array as="points">
              <mxPoint x="-5497" y="1320"/>
            </Array>
          </mxGeometry>
        </mxCell>
        <mxCell id="Bwh5HaH0jvtO-nfgoD8l-29" value="1 HESTIA / VESTA&lt;br&gt;(hearth)" style="rounded=0;whiteSpace=wrap;html=1;fillColor=#fff2cc;strokeColor=#d6b656;" parent="1" vertex="1">
          <mxGeometry x="-5390" y="1040" width="120" height="60" as="geometry"/>
        </mxCell>
        <mxCell id="Bwh5HaH0jvtO-nfgoD8l-30" value="2 HADES / PLUTO&lt;br&gt;(underworld)" style="rounded=0;whiteSpace=wrap;html=1;fillColor=#d5e8d4;strokeColor=#82b366;" parent="1" vertex="1">
          <mxGeometry x="-5580" y="1040" width="120" height="60" as="geometry"/>
        </mxCell>
        <mxCell id="Bwh5HaH0jvtO-nfgoD8l-60" style="edgeStyle=orthogonalEdgeStyle;rounded=0;jumpStyle=none;jumpSize=14;orthogonalLoop=1;jettySize=auto;html=1;startArrow=none;startFill=0;endArrow=classic;endFill=1;entryX=0.5;entryY=0;entryDx=0;entryDy=0;" parent="1" target="Bwh5HaH0jvtO-nfgoD8l-56" edge="1">
          <mxGeometry relative="1" as="geometry">
            <mxPoint x="-5780" y="1320" as="sourcePoint"/>
            <Array as="points">
              <mxPoint x="-6317" y="1320"/>
            </Array>
          </mxGeometry>
        </mxCell>
        <mxCell id="Bwh5HaH0jvtO-nfgoD8l-61" style="edgeStyle=orthogonalEdgeStyle;rounded=0;jumpStyle=none;jumpSize=14;orthogonalLoop=1;jettySize=auto;html=1;startArrow=none;startFill=0;endArrow=classic;endFill=1;" parent="1" target="Bwh5HaH0jvtO-nfgoD8l-48" edge="1">
          <mxGeometry relative="1" as="geometry">
            <mxPoint x="-5807" y="1320" as="sourcePoint"/>
            <Array as="points">
              <mxPoint x="-6157" y="1320"/>
            </Array>
          </mxGeometry>
        </mxCell>
        <mxCell id="Bwh5HaH0jvtO-nfgoD8l-153" style="edgeStyle=orthogonalEdgeStyle;rounded=0;jumpStyle=arc;jumpSize=14;orthogonalLoop=1;jettySize=auto;html=1;exitX=1;exitY=0.5;exitDx=0;exitDy=0;entryX=0;entryY=0.5;entryDx=0;entryDy=0;startArrow=diamond;startFill=1;endArrow=diamond;endFill=1;" parent="1" source="Bwh5HaH0jvtO-nfgoD8l-31" target="Bwh5HaH0jvtO-nfgoD8l-32" edge="1">
          <mxGeometry relative="1" as="geometry"/>
        </mxCell>
        <mxCell id="Bwh5HaH0jvtO-nfgoD8l-155" style="edgeStyle=orthogonalEdgeStyle;rounded=0;jumpStyle=arc;jumpSize=14;orthogonalLoop=1;jettySize=auto;html=1;exitX=0;exitY=0.5;exitDx=0;exitDy=0;entryX=0.5;entryY=0;entryDx=0;entryDy=0;startArrow=none;startFill=0;endArrow=classic;endFill=1;" parent="1" source="Bwh5HaH0jvtO-nfgoD8l-31" target="Bwh5HaH0jvtO-nfgoD8l-154" edge="1">
          <mxGeometry relative="1" as="geometry"/>
        </mxCell>
        <mxCell id="Bwh5HaH0jvtO-nfgoD8l-31" value="3 DEMETER / CERES&lt;br&gt;(harvest, fertility)" style="rounded=0;whiteSpace=wrap;html=1;fillColor=#fff2cc;strokeColor=#d6b656;" parent="1" vertex="1">
          <mxGeometry x="-6760" y="1040" width="120" height="60" as="geometry"/>
        </mxCell>
        <mxCell id="Bwh5HaH0jvtO-nfgoD8l-147" style="edgeStyle=orthogonalEdgeStyle;rounded=0;jumpStyle=arc;jumpSize=14;orthogonalLoop=1;jettySize=auto;html=1;exitX=1;exitY=0.5;exitDx=0;exitDy=0;entryX=0;entryY=0.5;entryDx=0;entryDy=0;startArrow=diamond;startFill=1;endArrow=diamond;endFill=1;" parent="1" source="Bwh5HaH0jvtO-nfgoD8l-32" target="SLmvfLO-0fDUO9Z2AGR4-106" edge="1">
          <mxGeometry relative="1" as="geometry">
            <Array as="points">
              <mxPoint x="-6350" y="1070"/>
              <mxPoint x="-6350" y="980"/>
              <mxPoint x="-4100" y="980"/>
              <mxPoint x="-4100" y="1200"/>
              <mxPoint x="-3520" y="1200"/>
              <mxPoint x="-3520" y="1390"/>
            </Array>
          </mxGeometry>
        </mxCell>
        <mxCell id="Bwh5HaH0jvtO-nfgoD8l-157" style="edgeStyle=orthogonalEdgeStyle;rounded=0;jumpStyle=arc;jumpSize=14;orthogonalLoop=1;jettySize=auto;html=1;exitX=0;exitY=0.5;exitDx=0;exitDy=0;startArrow=none;startFill=0;endArrow=classic;endFill=1;" parent="1" source="Bwh5HaH0jvtO-nfgoD8l-32" target="Bwh5HaH0jvtO-nfgoD8l-156" edge="1">
          <mxGeometry relative="1" as="geometry"/>
        </mxCell>
        <mxCell id="Bwh5HaH0jvtO-nfgoD8l-32" value="4 POSEIDON / NEPTUNE&lt;br&gt;(sea)" style="rounded=0;whiteSpace=wrap;html=1;fillColor=#d5e8d4;strokeColor=#82b366;" parent="1" vertex="1">
          <mxGeometry x="-6570" y="1040" width="120" height="60" as="geometry"/>
        </mxCell>
        <mxCell id="Bwh5HaH0jvtO-nfgoD8l-167" style="edgeStyle=orthogonalEdgeStyle;rounded=0;jumpStyle=arc;jumpSize=14;orthogonalLoop=1;jettySize=auto;html=1;exitX=0;exitY=0.5;exitDx=0;exitDy=0;startArrow=none;startFill=0;endArrow=classic;endFill=1;" parent="1" source="Bwh5HaH0jvtO-nfgoD8l-33" target="Bwh5HaH0jvtO-nfgoD8l-166" edge="1">
          <mxGeometry relative="1" as="geometry">
            <Array as="points">
              <mxPoint x="-7010" y="1070"/>
              <mxPoint x="-7010" y="1320"/>
              <mxPoint x="-6970" y="1320"/>
            </Array>
          </mxGeometry>
        </mxCell>
        <mxCell id="Bwh5HaH0jvtO-nfgoD8l-169" style="edgeStyle=orthogonalEdgeStyle;rounded=0;jumpStyle=arc;jumpSize=14;orthogonalLoop=1;jettySize=auto;html=1;exitX=0;exitY=0.5;exitDx=0;exitDy=0;startArrow=none;startFill=0;endArrow=classic;endFill=1;entryX=0.5;entryY=0;entryDx=0;entryDy=0;" parent="1" source="Bwh5HaH0jvtO-nfgoD8l-33" target="Bwh5HaH0jvtO-nfgoD8l-168" edge="1">
          <mxGeometry relative="1" as="geometry">
            <Array as="points">
              <mxPoint x="-7010" y="1070"/>
              <mxPoint x="-7010" y="1320"/>
              <mxPoint x="-7160" y="1320"/>
            </Array>
          </mxGeometry>
        </mxCell>
        <mxCell id="Bwh5HaH0jvtO-nfgoD8l-33" value="5 HERA&lt;br&gt;(marriage)" style="rounded=0;whiteSpace=wrap;html=1;fillColor=#fff2cc;strokeColor=#d6b656;" parent="1" vertex="1">
          <mxGeometry x="-6960" y="1040" width="120" height="60" as="geometry"/>
        </mxCell>
        <mxCell id="Bwh5HaH0jvtO-nfgoD8l-47" style="edgeStyle=orthogonalEdgeStyle;rounded=0;jumpStyle=arc;jumpSize=14;orthogonalLoop=1;jettySize=auto;html=1;startArrow=diamond;startFill=1;endArrow=diamond;endFill=1;entryX=0;entryY=0.5;entryDx=0;entryDy=0;exitX=0.25;exitY=0;exitDx=0;exitDy=0;" parent="1" source="Bwh5HaH0jvtO-nfgoD8l-34" target="SLmvfLO-0fDUO9Z2AGR4-65" edge="1">
          <mxGeometry relative="1" as="geometry">
            <mxPoint x="-5290" y="780" as="targetPoint"/>
            <mxPoint x="-6280" y="990" as="sourcePoint"/>
            <Array as="points">
              <mxPoint x="-7136" y="880"/>
              <mxPoint x="-5410" y="880"/>
              <mxPoint x="-5410" y="790"/>
            </Array>
          </mxGeometry>
        </mxCell>
        <mxCell id="Bwh5HaH0jvtO-nfgoD8l-73" style="edgeStyle=orthogonalEdgeStyle;rounded=0;jumpStyle=arc;jumpSize=14;orthogonalLoop=1;jettySize=auto;html=1;exitX=0.25;exitY=0;exitDx=0;exitDy=0;startArrow=diamond;startFill=1;endArrow=diamond;endFill=1;entryX=0;entryY=0.5;entryDx=0;entryDy=0;" parent="1" source="Bwh5HaH0jvtO-nfgoD8l-34" target="Bwh5HaH0jvtO-nfgoD8l-71" edge="1">
          <mxGeometry relative="1" as="geometry">
            <Array as="points">
              <mxPoint x="-7136" y="920"/>
              <mxPoint x="-3880" y="920"/>
              <mxPoint x="-3880" y="1070"/>
            </Array>
          </mxGeometry>
        </mxCell>
        <mxCell id="Bwh5HaH0jvtO-nfgoD8l-83" style="edgeStyle=orthogonalEdgeStyle;rounded=0;jumpStyle=arc;jumpSize=14;orthogonalLoop=1;jettySize=auto;html=1;exitX=0;exitY=0.5;exitDx=0;exitDy=0;entryX=0;entryY=0.5;entryDx=0;entryDy=0;startArrow=diamond;startFill=1;endArrow=diamond;endFill=1;" parent="1" source="vMH8rf_PuUaEWhDIgEK9-13" target="SLmvfLO-0fDUO9Z2AGR4-64" edge="1">
          <mxGeometry relative="1" as="geometry">
            <Array as="points">
              <mxPoint x="-2310" y="1068"/>
              <mxPoint x="-2310" y="910"/>
              <mxPoint x="-7136" y="910"/>
              <mxPoint x="-7136" y="900"/>
              <mxPoint x="-5020" y="900"/>
              <mxPoint x="-5020" y="790"/>
            </Array>
          </mxGeometry>
        </mxCell>
        <mxCell id="Bwh5HaH0jvtO-nfgoD8l-152" style="edgeStyle=orthogonalEdgeStyle;rounded=0;jumpStyle=arc;jumpSize=14;orthogonalLoop=1;jettySize=auto;html=1;exitX=1;exitY=0.25;exitDx=0;exitDy=0;startArrow=diamond;startFill=1;endArrow=diamond;endFill=1;entryX=0;entryY=0.5;entryDx=0;entryDy=0;" parent="1" source="Bwh5HaH0jvtO-nfgoD8l-34" target="Bwh5HaH0jvtO-nfgoD8l-31" edge="1">
          <mxGeometry relative="1" as="geometry">
            <Array as="points">
              <mxPoint x="-7010" y="1055"/>
              <mxPoint x="-7010" y="1020"/>
              <mxPoint x="-6810" y="1020"/>
              <mxPoint x="-6810" y="1070"/>
            </Array>
          </mxGeometry>
        </mxCell>
        <mxCell id="Bwh5HaH0jvtO-nfgoD8l-158" style="edgeStyle=orthogonalEdgeStyle;rounded=0;jumpStyle=arc;jumpSize=14;orthogonalLoop=1;jettySize=auto;html=1;exitX=1;exitY=0.5;exitDx=0;exitDy=0;entryX=0;entryY=0.5;entryDx=0;entryDy=0;startArrow=diamond;startFill=1;endArrow=diamond;endFill=1;" parent="1" source="Bwh5HaH0jvtO-nfgoD8l-34" target="Bwh5HaH0jvtO-nfgoD8l-33" edge="1">
          <mxGeometry relative="1" as="geometry"/>
        </mxCell>
        <mxCell id="vMH8rf_PuUaEWhDIgEK9-7" style="edgeStyle=orthogonalEdgeStyle;rounded=0;orthogonalLoop=1;jettySize=auto;html=1;exitX=0;exitY=0.5;exitDx=0;exitDy=0;entryX=0.5;entryY=1;entryDx=0;entryDy=0;dashed=1;" parent="1" source="Bwh5HaH0jvtO-nfgoD8l-34" target="Bwh5HaH0jvtO-nfgoD8l-10" edge="1">
          <mxGeometry relative="1" as="geometry">
            <Array as="points">
              <mxPoint x="-7240" y="1070"/>
              <mxPoint x="-7240" y="930"/>
              <mxPoint x="210" y="930"/>
            </Array>
          </mxGeometry>
        </mxCell>
        <mxCell id="vMH8rf_PuUaEWhDIgEK9-49" style="edgeStyle=orthogonalEdgeStyle;rounded=0;jumpStyle=none;jumpSize=14;orthogonalLoop=1;jettySize=auto;html=1;exitX=1;exitY=0.75;exitDx=0;exitDy=0;entryX=0;entryY=0.5;entryDx=0;entryDy=0;startArrow=diamond;startFill=1;endArrow=diamond;endFill=1;" parent="1" source="Bwh5HaH0jvtO-nfgoD8l-34" target="vMH8rf_PuUaEWhDIgEK9-33" edge="1">
          <mxGeometry relative="1" as="geometry">
            <Array as="points">
              <mxPoint x="-7020" y="1085"/>
              <mxPoint x="-7020" y="1190"/>
              <mxPoint x="-3540" y="1190"/>
              <mxPoint x="-3540" y="1490"/>
              <mxPoint x="-3360" y="1490"/>
              <mxPoint x="-3360" y="1670"/>
            </Array>
          </mxGeometry>
        </mxCell>
        <mxCell id="Bwh5HaH0jvtO-nfgoD8l-34" value="6 ZEUS / JUPITER&lt;br&gt;(sky, weather, storms)" style="rounded=0;whiteSpace=wrap;html=1;fillColor=#d5e8d4;strokeColor=#82b366;" parent="1" vertex="1">
          <mxGeometry x="-7166" y="1040" width="120" height="60" as="geometry"/>
        </mxCell>
        <mxCell id="Bwh5HaH0jvtO-nfgoD8l-40" style="edgeStyle=orthogonalEdgeStyle;rounded=0;jumpStyle=none;jumpSize=14;orthogonalLoop=1;jettySize=auto;html=1;exitX=1;exitY=0.5;exitDx=0;exitDy=0;entryX=0;entryY=0.5;entryDx=0;entryDy=0;startArrow=none;startFill=0;endArrow=none;endFill=0;dashed=1;" parent="1" source="vMH8rf_PuUaEWhDIgEK9-6" target="Bwh5HaH0jvtO-nfgoD8l-34" edge="1">
          <mxGeometry relative="1" as="geometry">
            <Array as="points">
              <mxPoint x="-7245" y="1082"/>
              <mxPoint x="-7245" y="1070"/>
            </Array>
          </mxGeometry>
        </mxCell>
        <mxCell id="Bwh5HaH0jvtO-nfgoD8l-48" value="ERATO&lt;br&gt;love poetry" style="rounded=0;whiteSpace=wrap;html=1;fillColor=#fff2cc;strokeColor=#d6b656;" parent="1" vertex="1">
          <mxGeometry x="-6217.2" y="1358" width="120" height="60" as="geometry"/>
        </mxCell>
        <mxCell id="Bwh5HaH0jvtO-nfgoD8l-68" style="edgeStyle=orthogonalEdgeStyle;rounded=0;jumpStyle=none;jumpSize=14;orthogonalLoop=1;jettySize=auto;html=1;exitX=1;exitY=0.5;exitDx=0;exitDy=0;startArrow=diamond;startFill=1;endArrow=diamond;endFill=1;" parent="1" source="Bwh5HaH0jvtO-nfgoD8l-49" target="Bwh5HaH0jvtO-nfgoD8l-51" edge="1">
          <mxGeometry relative="1" as="geometry"/>
        </mxCell>
        <mxCell id="Bwh5HaH0jvtO-nfgoD8l-70" style="edgeStyle=orthogonalEdgeStyle;rounded=0;jumpStyle=none;jumpSize=14;orthogonalLoop=1;jettySize=auto;html=1;exitX=1;exitY=0.5;exitDx=0;exitDy=0;entryX=0.5;entryY=0;entryDx=0;entryDy=0;startArrow=none;startFill=0;endArrow=classic;endFill=1;" parent="1" source="Bwh5HaH0jvtO-nfgoD8l-49" target="Bwh5HaH0jvtO-nfgoD8l-69" edge="1">
          <mxGeometry relative="1" as="geometry">
            <Array as="points">
              <mxPoint x="-5907.2" y="1388"/>
              <mxPoint x="-5907.2" y="1568"/>
            </Array>
          </mxGeometry>
        </mxCell>
        <mxCell id="Bwh5HaH0jvtO-nfgoD8l-49" value="EUTERPE&lt;br&gt;music" style="rounded=0;whiteSpace=wrap;html=1;fillColor=#fff2cc;strokeColor=#d6b656;" parent="1" vertex="1">
          <mxGeometry x="-6067.2" y="1358" width="120" height="60" as="geometry"/>
        </mxCell>
        <mxCell id="Bwh5HaH0jvtO-nfgoD8l-51" value="STRYMON&lt;br&gt;(river god)" style="rounded=0;whiteSpace=wrap;html=1;fillColor=#d5e8d4;strokeColor=#82b366;" parent="1" vertex="1">
          <mxGeometry x="-5867.2" y="1358" width="120" height="60" as="geometry"/>
        </mxCell>
        <mxCell id="Bwh5HaH0jvtO-nfgoD8l-52" value="MELPOMENE&lt;br&gt;tragedy" style="rounded=0;whiteSpace=wrap;html=1;fillColor=#fff2cc;strokeColor=#d6b656;" parent="1" vertex="1">
          <mxGeometry x="-5707.2" y="1358" width="120" height="60" as="geometry"/>
        </mxCell>
        <mxCell id="Bwh5HaH0jvtO-nfgoD8l-53" value="POLYHYMNIA&lt;br&gt;sacred music - hymns" style="rounded=0;whiteSpace=wrap;html=1;fillColor=#fff2cc;strokeColor=#d6b656;" parent="1" vertex="1">
          <mxGeometry x="-5557.2" y="1358" width="120" height="60" as="geometry"/>
        </mxCell>
        <mxCell id="Bwh5HaH0jvtO-nfgoD8l-54" value="TERPSICHORE&lt;br&gt;dance" style="rounded=0;whiteSpace=wrap;html=1;fillColor=#fff2cc;strokeColor=#d6b656;" parent="1" vertex="1">
          <mxGeometry x="-5397.2" y="1358" width="120" height="60" as="geometry"/>
        </mxCell>
        <mxCell id="Bwh5HaH0jvtO-nfgoD8l-55" value="THALIA&lt;br&gt;comedy" style="rounded=0;whiteSpace=wrap;html=1;fillColor=#fff2cc;strokeColor=#d6b656;" parent="1" vertex="1">
          <mxGeometry x="-5237.2" y="1358" width="120" height="60" as="geometry"/>
        </mxCell>
        <mxCell id="Bwh5HaH0jvtO-nfgoD8l-56" value="CLIO (KLEIO)&lt;br&gt;history" style="rounded=0;whiteSpace=wrap;html=1;fillColor=#fff2cc;strokeColor=#d6b656;" parent="1" vertex="1">
          <mxGeometry x="-6377.2" y="1358" width="120" height="60" as="geometry"/>
        </mxCell>
        <mxCell id="Bwh5HaH0jvtO-nfgoD8l-57" value="CALLIOPE&lt;br&gt;epic poetry" style="rounded=0;whiteSpace=wrap;html=1;fillColor=#fff2cc;strokeColor=#d6b656;" parent="1" vertex="1">
          <mxGeometry x="-6527.2" y="1358" width="120" height="60" as="geometry"/>
        </mxCell>
        <mxCell id="Bwh5HaH0jvtO-nfgoD8l-67" value="URANIA&lt;br&gt;astronomy" style="rounded=0;whiteSpace=wrap;html=1;fillColor=#fff2cc;strokeColor=#d6b656;" parent="1" vertex="1">
          <mxGeometry x="-5077.2" y="1358" width="120" height="60" as="geometry"/>
        </mxCell>
        <mxCell id="Bwh5HaH0jvtO-nfgoD8l-69" value="RHESUS&lt;br&gt;Thracian king" style="rounded=0;whiteSpace=wrap;html=1;fillColor=#d5e8d4;strokeColor=#82b366;" parent="1" vertex="1">
          <mxGeometry x="-5967.2" y="1568" width="120" height="60" as="geometry"/>
        </mxCell>
        <mxCell id="Bwh5HaH0jvtO-nfgoD8l-79" style="edgeStyle=orthogonalEdgeStyle;rounded=0;jumpStyle=arc;jumpSize=14;orthogonalLoop=1;jettySize=auto;html=1;exitX=0;exitY=0.5;exitDx=0;exitDy=0;startArrow=none;startFill=0;endArrow=classic;endFill=1;" parent="1" source="Bwh5HaH0jvtO-nfgoD8l-71" target="Bwh5HaH0jvtO-nfgoD8l-78" edge="1">
          <mxGeometry relative="1" as="geometry">
            <Array as="points">
              <mxPoint x="-3860" y="1070"/>
              <mxPoint x="-3860" y="1320"/>
              <mxPoint x="-3930" y="1320"/>
            </Array>
          </mxGeometry>
        </mxCell>
        <mxCell id="Bwh5HaH0jvtO-nfgoD8l-80" style="edgeStyle=orthogonalEdgeStyle;rounded=0;jumpStyle=arc;jumpSize=14;orthogonalLoop=1;jettySize=auto;html=1;entryX=0.5;entryY=0;entryDx=0;entryDy=0;startArrow=none;startFill=0;endArrow=classic;endFill=1;" parent="1" target="Bwh5HaH0jvtO-nfgoD8l-76" edge="1">
          <mxGeometry relative="1" as="geometry">
            <mxPoint x="-3930" y="1320" as="sourcePoint"/>
          </mxGeometry>
        </mxCell>
        <mxCell id="Bwh5HaH0jvtO-nfgoD8l-81" style="edgeStyle=orthogonalEdgeStyle;rounded=0;jumpStyle=arc;jumpSize=14;orthogonalLoop=1;jettySize=auto;html=1;startArrow=none;startFill=0;endArrow=classic;endFill=1;" parent="1" target="Bwh5HaH0jvtO-nfgoD8l-77" edge="1">
          <mxGeometry relative="1" as="geometry">
            <mxPoint x="-3900" y="1320" as="sourcePoint"/>
          </mxGeometry>
        </mxCell>
        <mxCell id="vMH8rf_PuUaEWhDIgEK9-8" style="edgeStyle=orthogonalEdgeStyle;rounded=0;orthogonalLoop=1;jettySize=auto;html=1;exitX=0.5;exitY=1;exitDx=0;exitDy=0;entryX=0.75;entryY=0;entryDx=0;entryDy=0;dashed=1;" parent="1" source="Bwh5HaH0jvtO-nfgoD8l-71" target="Bwh5HaH0jvtO-nfgoD8l-166" edge="1">
          <mxGeometry relative="1" as="geometry"/>
        </mxCell>
        <mxCell id="Bwh5HaH0jvtO-nfgoD8l-71" value="EURYNOME" style="rounded=0;whiteSpace=wrap;html=1;fillColor=#fff2cc;strokeColor=#d6b656;" parent="1" vertex="1">
          <mxGeometry x="-3830" y="1040" width="120" height="60" as="geometry"/>
        </mxCell>
        <mxCell id="Bwh5HaH0jvtO-nfgoD8l-75" value="MUSES" style="text;html=1;strokeColor=none;fillColor=none;align=center;verticalAlign=middle;whiteSpace=wrap;rounded=0;" parent="1" vertex="1">
          <mxGeometry x="-5727.2" y="1288" width="40" height="20" as="geometry"/>
        </mxCell>
        <mxCell id="Bwh5HaH0jvtO-nfgoD8l-76" value="EUPHROSYNE / EUTHYMIA&lt;br&gt;(merriment)" style="rounded=0;whiteSpace=wrap;html=1;fillColor=#fff2cc;strokeColor=#d6b656;" parent="1" vertex="1">
          <mxGeometry x="-3830" y="1360" width="120" height="60" as="geometry"/>
        </mxCell>
        <mxCell id="Bwh5HaH0jvtO-nfgoD8l-77" value="THALIA&lt;br&gt;(cheerfulness)" style="rounded=0;whiteSpace=wrap;html=1;fillColor=#fff2cc;strokeColor=#d6b656;" parent="1" vertex="1">
          <mxGeometry x="-3680" y="1360" width="120" height="60" as="geometry"/>
        </mxCell>
        <mxCell id="Bwh5HaH0jvtO-nfgoD8l-78" value="AGLAEA&lt;br&gt;(splendour)" style="rounded=0;whiteSpace=wrap;html=1;fillColor=#fff2cc;strokeColor=#d6b656;" parent="1" vertex="1">
          <mxGeometry x="-3990" y="1360" width="120" height="60" as="geometry"/>
        </mxCell>
        <mxCell id="Bwh5HaH0jvtO-nfgoD8l-82" value="CHARITES / GRATIAE" style="text;html=1;strokeColor=none;fillColor=none;align=center;verticalAlign=middle;whiteSpace=wrap;rounded=0;" parent="1" vertex="1">
          <mxGeometry x="-3850" y="1300" width="140" height="20" as="geometry"/>
        </mxCell>
        <mxCell id="Bwh5HaH0jvtO-nfgoD8l-84" value="AUXESIA&lt;br&gt;summer" style="rounded=0;whiteSpace=wrap;html=1;fillColor=#fff2cc;strokeColor=#d6b656;" parent="1" vertex="1">
          <mxGeometry x="-4900" y="1360" width="120" height="60" as="geometry"/>
        </mxCell>
        <mxCell id="Bwh5HaH0jvtO-nfgoD8l-85" value="CARPO&lt;br&gt;winter" style="rounded=0;whiteSpace=wrap;html=1;fillColor=#fff2cc;strokeColor=#d6b656;" parent="1" vertex="1">
          <mxGeometry x="-4750" y="1360" width="120" height="60" as="geometry"/>
        </mxCell>
        <mxCell id="Bwh5HaH0jvtO-nfgoD8l-86" value="THALLO / FLORA&lt;br&gt;spring" style="rounded=0;whiteSpace=wrap;html=1;fillColor=#fff2cc;strokeColor=#d6b656;" parent="1" vertex="1">
          <mxGeometry x="-4600" y="1360" width="120" height="60" as="geometry"/>
        </mxCell>
        <mxCell id="Bwh5HaH0jvtO-nfgoD8l-87" value="EUNOMIA&lt;br&gt;law and legislation" style="rounded=0;whiteSpace=wrap;html=1;fillColor=#fff2cc;strokeColor=#d6b656;" parent="1" vertex="1">
          <mxGeometry x="-4430" y="1360" width="120" height="60" as="geometry"/>
        </mxCell>
        <mxCell id="Bwh5HaH0jvtO-nfgoD8l-88" value="DIKE / JUSTITIA&lt;br&gt;justice" style="rounded=0;whiteSpace=wrap;html=1;fillColor=#fff2cc;strokeColor=#d6b656;" parent="1" vertex="1">
          <mxGeometry x="-4280" y="1360" width="120" height="60" as="geometry"/>
        </mxCell>
        <mxCell id="Bwh5HaH0jvtO-nfgoD8l-89" value="EIRENE / PAX&lt;br&gt;peace" style="rounded=0;whiteSpace=wrap;html=1;fillColor=#fff2cc;strokeColor=#d6b656;" parent="1" vertex="1">
          <mxGeometry x="-4135" y="1360" width="120" height="60" as="geometry"/>
        </mxCell>
        <mxCell id="Bwh5HaH0jvtO-nfgoD8l-96" value="HORAI (Hours)" style="text;html=1;strokeColor=none;fillColor=none;align=center;verticalAlign=middle;whiteSpace=wrap;rounded=0;" parent="1" vertex="1">
          <mxGeometry x="-4320" y="1300" width="110" height="20" as="geometry"/>
        </mxCell>
        <mxCell id="Bwh5HaH0jvtO-nfgoD8l-97" value="HORAI (Hours)" style="text;html=1;strokeColor=none;fillColor=none;align=center;verticalAlign=middle;whiteSpace=wrap;rounded=0;" parent="1" vertex="1">
          <mxGeometry x="-4690" y="1300" width="90" height="20" as="geometry"/>
        </mxCell>
        <mxCell id="Bwh5HaH0jvtO-nfgoD8l-103" style="edgeStyle=orthogonalEdgeStyle;rounded=0;jumpStyle=none;jumpSize=14;orthogonalLoop=1;jettySize=auto;html=1;entryX=0.5;entryY=0;entryDx=0;entryDy=0;startArrow=none;startFill=0;endArrow=classic;endFill=1;" parent="1" target="Bwh5HaH0jvtO-nfgoD8l-100" edge="1">
          <mxGeometry relative="1" as="geometry">
            <mxPoint x="4240" y="510" as="sourcePoint"/>
            <Array as="points">
              <mxPoint x="4300" y="510"/>
              <mxPoint x="4300" y="550"/>
              <mxPoint x="4490" y="550"/>
            </Array>
          </mxGeometry>
        </mxCell>
        <mxCell id="Bwh5HaH0jvtO-nfgoD8l-98" value="CLOTHO" style="rounded=0;whiteSpace=wrap;html=1;fillColor=#fff2cc;strokeColor=#d6b656;" parent="1" vertex="1">
          <mxGeometry x="4110" y="580" width="120" height="60" as="geometry"/>
        </mxCell>
        <mxCell id="Bwh5HaH0jvtO-nfgoD8l-99" value="LACHESIS" style="rounded=0;whiteSpace=wrap;html=1;fillColor=#fff2cc;strokeColor=#d6b656;" parent="1" vertex="1">
          <mxGeometry x="4270" y="580" width="120" height="60" as="geometry"/>
        </mxCell>
        <mxCell id="Bwh5HaH0jvtO-nfgoD8l-108" style="edgeStyle=orthogonalEdgeStyle;rounded=0;jumpStyle=none;jumpSize=14;orthogonalLoop=1;jettySize=auto;html=1;entryX=0.5;entryY=0;entryDx=0;entryDy=0;startArrow=none;startFill=0;endArrow=classic;endFill=1;" parent="1" target="Bwh5HaH0jvtO-nfgoD8l-107" edge="1">
          <mxGeometry relative="1" as="geometry">
            <mxPoint x="4256.7998046875" y="510" as="sourcePoint"/>
          </mxGeometry>
        </mxCell>
        <mxCell id="Bwh5HaH0jvtO-nfgoD8l-100" value="ATROPOS" style="rounded=0;whiteSpace=wrap;html=1;fillColor=#fff2cc;strokeColor=#d6b656;" parent="1" vertex="1">
          <mxGeometry x="4430" y="580" width="120" height="60" as="geometry"/>
        </mxCell>
        <mxCell id="Bwh5HaH0jvtO-nfgoD8l-104" value="MOIRAI (Fates)" style="text;html=1;strokeColor=none;fillColor=none;align=center;verticalAlign=middle;whiteSpace=wrap;rounded=0;" parent="1" vertex="1">
          <mxGeometry x="4190" y="530" width="110" height="20" as="geometry"/>
        </mxCell>
        <mxCell id="Bwh5HaH0jvtO-nfgoD8l-107" value="KERES" style="text;html=1;strokeColor=none;fillColor=none;align=center;verticalAlign=middle;whiteSpace=wrap;rounded=0;" parent="1" vertex="1">
          <mxGeometry x="4640" y="600" width="40" height="20" as="geometry"/>
        </mxCell>
        <mxCell id="Bwh5HaH0jvtO-nfgoD8l-112" style="edgeStyle=orthogonalEdgeStyle;rounded=0;jumpStyle=none;jumpSize=14;orthogonalLoop=1;jettySize=auto;html=1;entryX=0.5;entryY=0;entryDx=0;entryDy=0;startArrow=none;startFill=0;endArrow=classic;endFill=1;" parent="1" target="Bwh5HaH0jvtO-nfgoD8l-110" edge="1">
          <mxGeometry relative="1" as="geometry">
            <mxPoint x="-6540" y="650" as="sourcePoint"/>
          </mxGeometry>
        </mxCell>
        <mxCell id="Bwh5HaH0jvtO-nfgoD8l-109" value="CETO" style="rounded=0;whiteSpace=wrap;html=1;fillColor=#fff2cc;strokeColor=#d6b656;" parent="1" vertex="1">
          <mxGeometry x="-7460" y="771" width="120" height="60" as="geometry"/>
        </mxCell>
        <mxCell id="Bwh5HaH0jvtO-nfgoD8l-111" style="edgeStyle=orthogonalEdgeStyle;rounded=0;jumpStyle=none;jumpSize=14;orthogonalLoop=1;jettySize=auto;html=1;entryX=0.5;entryY=0;entryDx=0;entryDy=0;startArrow=none;startFill=0;endArrow=classic;endFill=1;" parent="1" target="Bwh5HaH0jvtO-nfgoD8l-109" edge="1">
          <mxGeometry relative="1" as="geometry">
            <mxPoint x="-6062" y="650" as="sourcePoint"/>
          </mxGeometry>
        </mxCell>
        <mxCell id="Bwh5HaH0jvtO-nfgoD8l-116" style="edgeStyle=orthogonalEdgeStyle;rounded=0;jumpStyle=none;jumpSize=14;orthogonalLoop=1;jettySize=auto;html=1;exitX=1;exitY=0.5;exitDx=0;exitDy=0;entryX=0;entryY=0.5;entryDx=0;entryDy=0;startArrow=diamond;startFill=1;endArrow=diamond;endFill=1;" parent="1" source="Bwh5HaH0jvtO-nfgoD8l-110" target="Bwh5HaH0jvtO-nfgoD8l-109" edge="1">
          <mxGeometry relative="1" as="geometry"/>
        </mxCell>
        <mxCell id="Bwh5HaH0jvtO-nfgoD8l-117" style="edgeStyle=orthogonalEdgeStyle;rounded=0;jumpStyle=none;jumpSize=14;orthogonalLoop=1;jettySize=auto;html=1;exitX=1;exitY=0.5;exitDx=0;exitDy=0;entryX=0.5;entryY=0;entryDx=0;entryDy=0;startArrow=none;startFill=0;endArrow=classic;endFill=1;" parent="1" source="Bwh5HaH0jvtO-nfgoD8l-110" target="Bwh5HaH0jvtO-nfgoD8l-113" edge="1">
          <mxGeometry relative="1" as="geometry">
            <Array as="points">
              <mxPoint x="-7500" y="801"/>
              <mxPoint x="-7500" y="971"/>
              <mxPoint x="-7910" y="971"/>
            </Array>
          </mxGeometry>
        </mxCell>
        <mxCell id="Bwh5HaH0jvtO-nfgoD8l-118" style="edgeStyle=orthogonalEdgeStyle;rounded=0;jumpStyle=none;jumpSize=14;orthogonalLoop=1;jettySize=auto;html=1;exitX=1;exitY=0.5;exitDx=0;exitDy=0;entryX=0.5;entryY=0;entryDx=0;entryDy=0;startArrow=none;startFill=0;endArrow=classic;endFill=1;" parent="1" source="Bwh5HaH0jvtO-nfgoD8l-110" target="Bwh5HaH0jvtO-nfgoD8l-114" edge="1">
          <mxGeometry relative="1" as="geometry">
            <Array as="points">
              <mxPoint x="-7500" y="801"/>
              <mxPoint x="-7500" y="971"/>
              <mxPoint x="-7730" y="971"/>
            </Array>
          </mxGeometry>
        </mxCell>
        <mxCell id="Bwh5HaH0jvtO-nfgoD8l-119" style="edgeStyle=orthogonalEdgeStyle;rounded=0;jumpStyle=none;jumpSize=14;orthogonalLoop=1;jettySize=auto;html=1;exitX=1;exitY=0.5;exitDx=0;exitDy=0;entryX=0.5;entryY=0;entryDx=0;entryDy=0;startArrow=none;startFill=0;endArrow=classic;endFill=1;" parent="1" source="Bwh5HaH0jvtO-nfgoD8l-110" target="Bwh5HaH0jvtO-nfgoD8l-115" edge="1">
          <mxGeometry relative="1" as="geometry">
            <Array as="points">
              <mxPoint x="-7500" y="801"/>
              <mxPoint x="-7500" y="971"/>
              <mxPoint x="-7570" y="971"/>
            </Array>
          </mxGeometry>
        </mxCell>
        <mxCell id="Bwh5HaH0jvtO-nfgoD8l-110" value="PHORCYS" style="rounded=0;whiteSpace=wrap;html=1;fillColor=#d5e8d4;strokeColor=#82b366;" parent="1" vertex="1">
          <mxGeometry x="-7670" y="771" width="120" height="60" as="geometry"/>
        </mxCell>
        <mxCell id="Bwh5HaH0jvtO-nfgoD8l-113" value="STHENO" style="rounded=0;whiteSpace=wrap;html=1;fillColor=#fff2cc;strokeColor=#d6b656;" parent="1" vertex="1">
          <mxGeometry x="-7970" y="1051" width="120" height="60" as="geometry"/>
        </mxCell>
        <mxCell id="Bwh5HaH0jvtO-nfgoD8l-114" value="EURYALE" style="rounded=0;whiteSpace=wrap;html=1;fillColor=#fff2cc;strokeColor=#d6b656;" parent="1" vertex="1">
          <mxGeometry x="-7790" y="1051" width="120" height="60" as="geometry"/>
        </mxCell>
        <mxCell id="Bwh5HaH0jvtO-nfgoD8l-115" value="MEDUSA" style="rounded=0;whiteSpace=wrap;html=1;fillColor=#fff2cc;strokeColor=#d6b656;" parent="1" vertex="1">
          <mxGeometry x="-7630" y="1051" width="120" height="60" as="geometry"/>
        </mxCell>
        <mxCell id="Bwh5HaH0jvtO-nfgoD8l-120" value="GORGONS" style="text;html=1;strokeColor=none;fillColor=none;align=center;verticalAlign=middle;whiteSpace=wrap;rounded=0;" parent="1" vertex="1">
          <mxGeometry x="-7560" y="951" width="40" height="20" as="geometry"/>
        </mxCell>
        <mxCell id="Bwh5HaH0jvtO-nfgoD8l-121" value="&lt;div style=&quot;text-align: left&quot;&gt;&lt;span&gt;NYMPHS&lt;/span&gt;&lt;/div&gt;&lt;div style=&quot;text-align: left&quot;&gt;&lt;span&gt;- OREADS (mountains, hills, grottoes)&lt;/span&gt;&lt;/div&gt;&lt;div style=&quot;text-align: left&quot;&gt;&lt;span&gt;- NEREIDS (deep water)&lt;/span&gt;&lt;/div&gt;&lt;div style=&quot;text-align: left&quot;&gt;&lt;span&gt;- NAIADS (rivers, lakes)&lt;/span&gt;&lt;/div&gt;&lt;div style=&quot;text-align: left&quot;&gt;&lt;span&gt;- PEGAEAE (natural springs)&lt;/span&gt;&lt;/div&gt;&lt;div style=&quot;text-align: left&quot;&gt;&lt;span&gt;- POTAMEIDES (river banks)&lt;/span&gt;&lt;/div&gt;&lt;div style=&quot;text-align: left&quot;&gt;&lt;span&gt;- TAGIDES (TAGUS river)&lt;/span&gt;&lt;/div&gt;&lt;div style=&quot;text-align: left&quot;&gt;&lt;span&gt;- AULONIADES (pastures, groves)&lt;/span&gt;&lt;/div&gt;&lt;div style=&quot;text-align: left&quot;&gt;&lt;span&gt;- LEIMAKIDES (meadows)&lt;/span&gt;&lt;/div&gt;&lt;div style=&quot;text-align: left&quot;&gt;&lt;span&gt;- DRYADS (woodland)&lt;/span&gt;&lt;/div&gt;&lt;div style=&quot;text-align: left&quot;&gt;&lt;span&gt;- HAMADRYADS (trees)&lt;/span&gt;&lt;/div&gt;&lt;div style=&quot;text-align: left&quot;&gt;&lt;span&gt;- MELIAE (ash tree)&lt;/span&gt;&lt;/div&gt;&lt;div style=&quot;text-align: left&quot;&gt;&lt;span&gt;&lt;br&gt;&lt;/span&gt;&lt;/div&gt;" style="rounded=0;whiteSpace=wrap;html=1;verticalAlign=top;" parent="1" vertex="1">
          <mxGeometry x="4550" y="30" width="270" height="190" as="geometry"/>
        </mxCell>
        <mxCell id="Bwh5HaH0jvtO-nfgoD8l-122" value="RIVERS OF UNDERWORLD&lt;br&gt;- PHLEGETHON (fire)&lt;br&gt;- ACHERON (woe)&lt;br&gt;- LETHE (forgetfulness)&lt;br&gt;- COCYTUS (lamentation)" style="rounded=0;whiteSpace=wrap;html=1;" parent="1" vertex="1">
          <mxGeometry x="-2820" y="1122" width="180" height="80" as="geometry"/>
        </mxCell>
        <mxCell id="Bwh5HaH0jvtO-nfgoD8l-125" value="UNDERWORLD" style="rounded=1;whiteSpace=wrap;html=1;fillColor=#f8cecc;strokeColor=#b85450;" parent="1" vertex="1">
          <mxGeometry x="-2790" y="1040" width="120" height="22" as="geometry"/>
        </mxCell>
        <mxCell id="Bwh5HaH0jvtO-nfgoD8l-127" value="UNDERWORLD" style="rounded=1;whiteSpace=wrap;html=1;fillColor=#f8cecc;strokeColor=#b85450;" parent="1" vertex="1">
          <mxGeometry x="-2790" y="1202" width="120" height="22" as="geometry"/>
        </mxCell>
        <mxCell id="Bwh5HaH0jvtO-nfgoD8l-128" value="UNDERWORLD" style="rounded=1;whiteSpace=wrap;html=1;fillColor=#f8cecc;strokeColor=#b85450;" parent="1" vertex="1">
          <mxGeometry x="1640" y="450" width="120" height="22" as="geometry"/>
        </mxCell>
        <mxCell id="Bwh5HaH0jvtO-nfgoD8l-129" value="UNDERWORLD" style="rounded=1;whiteSpace=wrap;html=1;fillColor=#f8cecc;strokeColor=#b85450;" parent="1" vertex="1">
          <mxGeometry x="-250" y="738" width="120" height="22" as="geometry"/>
        </mxCell>
        <mxCell id="Bwh5HaH0jvtO-nfgoD8l-131" value="UNDERWORLD" style="rounded=1;whiteSpace=wrap;html=1;fillColor=#f8cecc;strokeColor=#b85450;" parent="1" vertex="1">
          <mxGeometry x="3580" y="450" width="120" height="22" as="geometry"/>
        </mxCell>
        <mxCell id="Bwh5HaH0jvtO-nfgoD8l-132" value="UNDERWORLD" style="rounded=1;whiteSpace=wrap;html=1;fillColor=#f8cecc;strokeColor=#b85450;" parent="1" vertex="1">
          <mxGeometry x="1600" y="620" width="120" height="22" as="geometry"/>
        </mxCell>
        <mxCell id="Bwh5HaH0jvtO-nfgoD8l-133" value="UNDERWORLD" style="rounded=1;whiteSpace=wrap;html=1;fillColor=#f8cecc;strokeColor=#b85450;" parent="1" vertex="1">
          <mxGeometry x="2370" y="630" width="120" height="22" as="geometry"/>
        </mxCell>
        <mxCell id="Bwh5HaH0jvtO-nfgoD8l-134" value="ECHIDNA" style="rounded=0;whiteSpace=wrap;html=1;fillColor=#fff2cc;strokeColor=#d6b656;" parent="1" vertex="1">
          <mxGeometry x="620" y="582" width="120" height="60" as="geometry"/>
        </mxCell>
        <mxCell id="Bwh5HaH0jvtO-nfgoD8l-138" value="KERBEROS" style="rounded=0;whiteSpace=wrap;html=1;fillColor=#d5e8d4;strokeColor=#82b366;" parent="1" vertex="1">
          <mxGeometry x="530" y="760" width="120" height="60" as="geometry"/>
        </mxCell>
        <mxCell id="Bwh5HaH0jvtO-nfgoD8l-140" value="HYDRA" style="rounded=0;whiteSpace=wrap;html=1;fillColor=#fff2cc;strokeColor=#d6b656;" parent="1" vertex="1">
          <mxGeometry x="240" y="582" width="120" height="60" as="geometry"/>
        </mxCell>
        <mxCell id="Bwh5HaH0jvtO-nfgoD8l-142" value="UNDERWORLD" style="rounded=1;whiteSpace=wrap;html=1;fillColor=#f8cecc;strokeColor=#b85450;" parent="1" vertex="1">
          <mxGeometry x="240" y="637" width="120" height="22" as="geometry"/>
        </mxCell>
        <mxCell id="Bwh5HaH0jvtO-nfgoD8l-143" value="UNDERWORLD" style="rounded=1;whiteSpace=wrap;html=1;fillColor=#f8cecc;strokeColor=#b85450;" parent="1" vertex="1">
          <mxGeometry x="530" y="810" width="120" height="22" as="geometry"/>
        </mxCell>
        <mxCell id="Bwh5HaH0jvtO-nfgoD8l-144" value="UNDERWORLD" style="rounded=1;whiteSpace=wrap;html=1;fillColor=#f8cecc;strokeColor=#b85450;" parent="1" vertex="1">
          <mxGeometry x="190" y="450" width="120" height="22" as="geometry"/>
        </mxCell>
        <mxCell id="Bwh5HaH0jvtO-nfgoD8l-145" value="UNDERWORLD" style="rounded=1;whiteSpace=wrap;html=1;fillColor=#f8cecc;strokeColor=#b85450;" parent="1" vertex="1">
          <mxGeometry x="-5580" y="1089" width="120" height="22" as="geometry"/>
        </mxCell>
        <mxCell id="Bwh5HaH0jvtO-nfgoD8l-149" value="TRITON" style="rounded=0;whiteSpace=wrap;html=1;fillColor=#d5e8d4;strokeColor=#82b366;" parent="1" vertex="1">
          <mxGeometry x="-3550" y="1640" width="120" height="60" as="geometry"/>
        </mxCell>
        <mxCell id="Bwh5HaH0jvtO-nfgoD8l-154" value="PERSEPHONE" style="rounded=0;whiteSpace=wrap;html=1;fillColor=#fff2cc;strokeColor=#d6b656;" parent="1" vertex="1">
          <mxGeometry x="-6850" y="1360" width="120" height="60" as="geometry"/>
        </mxCell>
        <mxCell id="Bwh5HaH0jvtO-nfgoD8l-156" value="ARION&lt;br&gt;(speaking horse)" style="rounded=0;whiteSpace=wrap;html=1;fillColor=#d5e8d4;strokeColor=#82b366;" parent="1" vertex="1">
          <mxGeometry x="-6670" y="1360" width="120" height="60" as="geometry"/>
        </mxCell>
        <mxCell id="Bwh5HaH0jvtO-nfgoD8l-159" value="OLYMPIANS" style="rounded=1;whiteSpace=wrap;html=1;fillColor=#dae8fc;strokeColor=#6c8ebf;" parent="1" vertex="1">
          <mxGeometry x="-7166" y="1092" width="120" height="19" as="geometry"/>
        </mxCell>
        <mxCell id="Bwh5HaH0jvtO-nfgoD8l-160" value="OLYMPIANS" style="rounded=1;whiteSpace=wrap;html=1;fillColor=#dae8fc;strokeColor=#6c8ebf;" parent="1" vertex="1">
          <mxGeometry x="-6960" y="1092" width="120" height="19" as="geometry"/>
        </mxCell>
        <mxCell id="Bwh5HaH0jvtO-nfgoD8l-161" value="OLYMPIANS" style="rounded=1;whiteSpace=wrap;html=1;fillColor=#dae8fc;strokeColor=#6c8ebf;" parent="1" vertex="1">
          <mxGeometry x="-6760" y="1092" width="120" height="19" as="geometry"/>
        </mxCell>
        <mxCell id="Bwh5HaH0jvtO-nfgoD8l-162" value="OLYMPIANS" style="rounded=1;whiteSpace=wrap;html=1;fillColor=#dae8fc;strokeColor=#6c8ebf;" parent="1" vertex="1">
          <mxGeometry x="-6570" y="1092" width="120" height="19" as="geometry"/>
        </mxCell>
        <mxCell id="Bwh5HaH0jvtO-nfgoD8l-164" value="OLYMPIANS" style="rounded=1;whiteSpace=wrap;html=1;fillColor=#dae8fc;strokeColor=#6c8ebf;" parent="1" vertex="1">
          <mxGeometry x="-5390" y="1092" width="120" height="19" as="geometry"/>
        </mxCell>
        <mxCell id="Bwh5HaH0jvtO-nfgoD8l-165" value="OLYMPIANS" style="rounded=1;whiteSpace=wrap;html=1;fillColor=#dae8fc;strokeColor=#6c8ebf;" parent="1" vertex="1">
          <mxGeometry x="300.39999999999964" y="813" width="120" height="19" as="geometry"/>
        </mxCell>
        <mxCell id="Bwh5HaH0jvtO-nfgoD8l-166" value="&lt;div&gt;1 HEPHAESTUS / VULCAN&lt;br&gt;&lt;/div&gt;&lt;div&gt;(fire, blacksmiths)&lt;br&gt;&lt;/div&gt;" style="rounded=0;whiteSpace=wrap;html=1;fillColor=#d5e8d4;strokeColor=#82b366;" parent="1" vertex="1">
          <mxGeometry x="-7030" y="1360" width="120" height="60" as="geometry"/>
        </mxCell>
        <mxCell id="Bwh5HaH0jvtO-nfgoD8l-168" value="2 ARES / MARS&lt;br&gt;(war)" style="rounded=0;whiteSpace=wrap;html=1;fillColor=#d5e8d4;strokeColor=#82b366;" parent="1" vertex="1">
          <mxGeometry x="-7220" y="1360" width="120" height="60" as="geometry"/>
        </mxCell>
        <mxCell id="Bwh5HaH0jvtO-nfgoD8l-170" value="OLYMPIANS" style="rounded=1;whiteSpace=wrap;html=1;fillColor=#dae8fc;strokeColor=#6c8ebf;" parent="1" vertex="1">
          <mxGeometry x="-7220" y="1410" width="120" height="19" as="geometry"/>
        </mxCell>
        <mxCell id="vMH8rf_PuUaEWhDIgEK9-10" style="edgeStyle=orthogonalEdgeStyle;rounded=0;orthogonalLoop=1;jettySize=auto;html=1;exitX=0.5;exitY=1;exitDx=0;exitDy=0;entryX=0.75;entryY=1;entryDx=0;entryDy=0;dashed=1;" parent="1" source="Bwh5HaH0jvtO-nfgoD8l-172" target="Bwh5HaH0jvtO-nfgoD8l-166" edge="1">
          <mxGeometry relative="1" as="geometry">
            <Array as="points">
              <mxPoint x="-3248" y="1470"/>
              <mxPoint x="-6940" y="1470"/>
            </Array>
          </mxGeometry>
        </mxCell>
        <mxCell id="Bwh5HaH0jvtO-nfgoD8l-172" value="THETIS" style="rounded=0;whiteSpace=wrap;html=1;fillColor=#fff2cc;strokeColor=#d6b656;" parent="1" vertex="1">
          <mxGeometry x="-3308" y="1358" width="120" height="60" as="geometry"/>
        </mxCell>
        <mxCell id="vMH8rf_PuUaEWhDIgEK9-5" style="edgeStyle=orthogonalEdgeStyle;rounded=0;orthogonalLoop=1;jettySize=auto;html=1;exitX=1;exitY=0.5;exitDx=0;exitDy=0;entryX=0;entryY=0.5;entryDx=0;entryDy=0;dashed=1;" parent="1" source="vMH8rf_PuUaEWhDIgEK9-4" target="Bwh5HaH0jvtO-nfgoD8l-34" edge="1">
          <mxGeometry relative="1" as="geometry">
            <Array as="points">
              <mxPoint x="-7250" y="982"/>
              <mxPoint x="-7250" y="1070"/>
            </Array>
          </mxGeometry>
        </mxCell>
        <mxCell id="vMH8rf_PuUaEWhDIgEK9-4" value="&lt;div&gt;ADAMANTHEA&lt;/div&gt;&lt;div&gt;(nymph)&lt;br&gt;&lt;/div&gt;" style="rounded=0;whiteSpace=wrap;html=1;fillColor=#fff2cc;strokeColor=#d6b656;" parent="1" vertex="1">
          <mxGeometry x="-7443" y="951" width="120" height="60" as="geometry"/>
        </mxCell>
        <mxCell id="vMH8rf_PuUaEWhDIgEK9-6" value="&lt;div&gt;AMALTHEA&lt;/div&gt;&lt;div&gt;(she goat)&lt;br&gt;&lt;/div&gt;" style="rounded=0;whiteSpace=wrap;html=1;fillColor=#fff2cc;strokeColor=#d6b656;" parent="1" vertex="1">
          <mxGeometry x="-7443" y="1051" width="120" height="60" as="geometry"/>
        </mxCell>
        <mxCell id="vMH8rf_PuUaEWhDIgEK9-11" value="OLYMPIANS" style="rounded=1;whiteSpace=wrap;html=1;fillColor=#dae8fc;strokeColor=#6c8ebf;" parent="1" vertex="1">
          <mxGeometry x="-7030" y="1410" width="120" height="19" as="geometry"/>
        </mxCell>
        <mxCell id="vMH8rf_PuUaEWhDIgEK9-13" value="&lt;div&gt;LETO / LATONA&lt;/div&gt;&lt;div&gt;(modesty, motherhood)&lt;br&gt;&lt;/div&gt;" style="rounded=0;whiteSpace=wrap;html=1;fillColor=#fff2cc;strokeColor=#d6b656;" parent="1" vertex="1">
          <mxGeometry x="-2120" y="1038" width="120" height="60" as="geometry"/>
        </mxCell>
        <mxCell id="vMH8rf_PuUaEWhDIgEK9-17" value="&lt;div&gt;ATHENA / MINERVA&lt;/div&gt;&lt;div&gt;(war, srategy)&lt;br&gt;&lt;/div&gt;" style="rounded=0;whiteSpace=wrap;html=1;fillColor=#fff2cc;strokeColor=#d6b656;" parent="1" vertex="1">
          <mxGeometry x="-3110" y="1358" width="120" height="60" as="geometry"/>
        </mxCell>
        <mxCell id="vMH8rf_PuUaEWhDIgEK9-19" value="OLYMPIANS" style="rounded=1;whiteSpace=wrap;html=1;fillColor=#dae8fc;strokeColor=#6c8ebf;" parent="1" vertex="1">
          <mxGeometry x="-3110" y="1410" width="120" height="19" as="geometry"/>
        </mxCell>
        <mxCell id="vMH8rf_PuUaEWhDIgEK9-21" value="&lt;div&gt;APOLLO&lt;/div&gt;&lt;div&gt;(poetry, math, sun, logic, harmony)&lt;br&gt;&lt;/div&gt;" style="rounded=0;whiteSpace=wrap;html=1;fillColor=#d5e8d4;strokeColor=#82b366;" parent="1" vertex="1">
          <mxGeometry x="-2280" y="1360" width="120" height="60" as="geometry"/>
        </mxCell>
        <mxCell id="vMH8rf_PuUaEWhDIgEK9-22" value="&lt;div&gt;ARTEMIS / DIANA&lt;/div&gt;&lt;div&gt;hunter, moon, virgin, women&lt;br&gt;&lt;/div&gt;" style="rounded=0;whiteSpace=wrap;html=1;fillColor=#fff2cc;strokeColor=#d6b656;" parent="1" vertex="1">
          <mxGeometry x="-2100" y="1360" width="120" height="60" as="geometry"/>
        </mxCell>
        <mxCell id="vMH8rf_PuUaEWhDIgEK9-12" style="edgeStyle=orthogonalEdgeStyle;rounded=0;orthogonalLoop=1;jettySize=auto;html=1;exitX=1;exitY=0.5;exitDx=0;exitDy=0;entryX=0;entryY=0.75;entryDx=0;entryDy=0;startArrow=diamond;startFill=1;endArrow=diamond;endFill=1;jumpStyle=arc;jumpSize=14;" parent="1" source="Bwh5HaH0jvtO-nfgoD8l-166" target="Bwh5HaH0jvtO-nfgoD8l-27" edge="1">
          <mxGeometry relative="1" as="geometry">
            <Array as="points">
              <mxPoint x="-6880" y="1390"/>
              <mxPoint x="-6880" y="1250"/>
              <mxPoint x="270" y="1250"/>
              <mxPoint x="270" y="805"/>
            </Array>
          </mxGeometry>
        </mxCell>
        <mxCell id="Bwh5HaH0jvtO-nfgoD8l-171" style="edgeStyle=orthogonalEdgeStyle;rounded=0;jumpStyle=arc;jumpSize=14;orthogonalLoop=1;jettySize=auto;html=1;exitX=1;exitY=0.5;exitDx=0;exitDy=0;entryX=0;entryY=0.5;entryDx=0;entryDy=0;startArrow=diamond;startFill=1;endArrow=diamond;endFill=1;" parent="1" source="Bwh5HaH0jvtO-nfgoD8l-168" target="Bwh5HaH0jvtO-nfgoD8l-27" edge="1">
          <mxGeometry relative="1" as="geometry">
            <Array as="points">
              <mxPoint x="-7080" y="1390"/>
              <mxPoint x="-7080" y="1240"/>
              <mxPoint x="260" y="1240"/>
              <mxPoint x="260" y="790"/>
            </Array>
          </mxGeometry>
        </mxCell>
        <mxCell id="Bwh5HaH0jvtO-nfgoD8l-163" value="OLYMPIANS" style="rounded=1;whiteSpace=wrap;html=1;fillColor=#dae8fc;strokeColor=#6c8ebf;" parent="1" vertex="1">
          <mxGeometry x="-2280" y="1410" width="120" height="19" as="geometry"/>
        </mxCell>
        <mxCell id="vMH8rf_PuUaEWhDIgEK9-26" value="OLYMPIANS" style="rounded=1;whiteSpace=wrap;html=1;fillColor=#dae8fc;strokeColor=#6c8ebf;" parent="1" vertex="1">
          <mxGeometry x="-2100" y="1410" width="120" height="19" as="geometry"/>
        </mxCell>
        <mxCell id="vMH8rf_PuUaEWhDIgEK9-27" value="PYTHON" style="rounded=0;whiteSpace=wrap;html=1;fillColor=#d5e8d4;strokeColor=#82b366;" parent="1" vertex="1">
          <mxGeometry x="-380" y="577" width="120" height="60" as="geometry"/>
        </mxCell>
        <mxCell id="vMH8rf_PuUaEWhDIgEK9-32" style="edgeStyle=orthogonalEdgeStyle;rounded=0;jumpStyle=none;jumpSize=14;orthogonalLoop=1;jettySize=auto;html=1;exitX=1;exitY=0.5;exitDx=0;exitDy=0;entryX=0;entryY=0.5;entryDx=0;entryDy=0;startArrow=diamond;startFill=1;endArrow=diamond;endFill=1;" parent="1" source="vMH8rf_PuUaEWhDIgEK9-30" target="SLmvfLO-0fDUO9Z2AGR4-136" edge="1">
          <mxGeometry relative="1" as="geometry">
            <Array as="points">
              <mxPoint x="-2830" y="1070"/>
              <mxPoint x="-2830" y="1390"/>
            </Array>
          </mxGeometry>
        </mxCell>
        <mxCell id="vMH8rf_PuUaEWhDIgEK9-30" value="PLEIONE" style="rounded=0;whiteSpace=wrap;html=1;fillColor=#fff2cc;strokeColor=#d6b656;" parent="1" vertex="1">
          <mxGeometry x="-2980" y="1040" width="120" height="60" as="geometry"/>
        </mxCell>
        <mxCell id="vMH8rf_PuUaEWhDIgEK9-51" style="edgeStyle=orthogonalEdgeStyle;rounded=0;jumpStyle=none;jumpSize=14;orthogonalLoop=1;jettySize=auto;html=1;exitX=0;exitY=0.5;exitDx=0;exitDy=0;startArrow=none;startFill=0;endArrow=classic;endFill=1;" parent="1" source="vMH8rf_PuUaEWhDIgEK9-33" target="vMH8rf_PuUaEWhDIgEK9-50" edge="1">
          <mxGeometry relative="1" as="geometry"/>
        </mxCell>
        <mxCell id="vMH8rf_PuUaEWhDIgEK9-33" value="MAIA" style="rounded=0;whiteSpace=wrap;html=1;fillColor=#fff2cc;strokeColor=#d6b656;" parent="1" vertex="1">
          <mxGeometry x="-3210" y="1640" width="120" height="60" as="geometry"/>
        </mxCell>
        <mxCell id="vMH8rf_PuUaEWhDIgEK9-34" value="" style="rounded=0;whiteSpace=wrap;html=1;fillColor=#fff2cc;strokeColor=#d6b656;" parent="1" vertex="1">
          <mxGeometry x="-3050" y="1640" width="120" height="60" as="geometry"/>
        </mxCell>
        <mxCell id="vMH8rf_PuUaEWhDIgEK9-35" value="" style="rounded=0;whiteSpace=wrap;html=1;fillColor=#fff2cc;strokeColor=#d6b656;" parent="1" vertex="1">
          <mxGeometry x="-2900" y="1640" width="120" height="60" as="geometry"/>
        </mxCell>
        <mxCell id="vMH8rf_PuUaEWhDIgEK9-36" value="" style="rounded=0;whiteSpace=wrap;html=1;fillColor=#fff2cc;strokeColor=#d6b656;" parent="1" vertex="1">
          <mxGeometry x="-2740" y="1640" width="120" height="60" as="geometry"/>
        </mxCell>
        <mxCell id="vMH8rf_PuUaEWhDIgEK9-37" value="" style="rounded=0;whiteSpace=wrap;html=1;fillColor=#fff2cc;strokeColor=#d6b656;" parent="1" vertex="1">
          <mxGeometry x="-2590" y="1640" width="120" height="60" as="geometry"/>
        </mxCell>
        <mxCell id="vMH8rf_PuUaEWhDIgEK9-38" value="" style="rounded=0;whiteSpace=wrap;html=1;fillColor=#fff2cc;strokeColor=#d6b656;" parent="1" vertex="1">
          <mxGeometry x="-2440" y="1640" width="120" height="60" as="geometry"/>
        </mxCell>
        <mxCell id="vMH8rf_PuUaEWhDIgEK9-39" value="" style="rounded=0;whiteSpace=wrap;html=1;fillColor=#fff2cc;strokeColor=#d6b656;" parent="1" vertex="1">
          <mxGeometry x="-2290" y="1640" width="120" height="60" as="geometry"/>
        </mxCell>
        <mxCell id="vMH8rf_PuUaEWhDIgEK9-48" value="PLEiADES / ATLANTiDES" style="text;html=1;strokeColor=none;fillColor=none;align=center;verticalAlign=middle;whiteSpace=wrap;rounded=0;" parent="1" vertex="1">
          <mxGeometry x="-3080" y="1570" width="120" height="20" as="geometry"/>
        </mxCell>
        <mxCell id="vMH8rf_PuUaEWhDIgEK9-50" value="HERMES / MERCURY" style="rounded=0;whiteSpace=wrap;html=1;fillColor=#d5e8d4;strokeColor=#82b366;" parent="1" vertex="1">
          <mxGeometry x="-3360" y="2000" width="120" height="60" as="geometry"/>
        </mxCell>
      </root>
    </mxGraphModel>
  </diagram>
</mxfile>
